<svg width="28" height="28" viewBox="0 0 28 28" xmlns="http://www.w3.org/2000/svg">
<circle cx="14" cy="14" r="14" class="icon-primary"/>
<path d="M15.75 14.5832H12.25C10.6392 14.5832 8.75 15.7099 8.75 17.7332V19.3082C8.75 19.5981 9.01117 19.8332 9.33333 19.8332H18.6667C18.9888 19.8332 19.25 19.5981 19.25 19.3082V17.7332C19.25 15.7082 17.3608 14.5832 15.75 14.5832Z" fill="white"/>
<path d="M11.0833 11.0832C11.0833 12.694 12.3892 13.9998 14 13.9998C15.6108 13.9998 16.9167 12.694 16.9167 11.0832C16.9167 9.47234 15.6108 8.1665 14 8.1665C12.3892 8.1665 11.0833 9.47234 11.0833 11.0832Z" fill="white"/>
</svg>
