<?xml version="1.0" standalone="no"?><!DOCTYPE svg PUBLIC "-//W3C//DTD SVG 1.1//EN" "http://www.w3.org/Graphics/SVG/1.1/DTD/svg11.dtd"><svg class="icon" width="200px" height="200.00px" viewBox="0 0 1024 1024" version="1.1" xmlns="http://www.w3.org/2000/svg"><path d="M0 0h1024v1024.00512H0z" fill="#FFFFFF" /><path d="M853.82656 169.9328C762.34752 78.45888 640.8704 28.1344 511.6416 28.1344c-128.256-0.49152-251.1872 50.81088-341.69344 141.7984C23.296 316.09856-13.96736 539.70432 77.99808 725.06368l-20.81792 157.77792c-2.90816 21.2992 3.87072 42.60352 17.90976 58.56768a73.81504 73.81504 0 0 0 65.82272 24.67328l157.78304-20.79744a486.28736 486.28736 0 0 0 213.44256 49.36192c128.26112 0.47104 251.19232-50.82624 341.68832-141.33248 91.47904-91.47904 141.80352-212.94592 141.80352-342.17472 0-129.20832-50.82112-250.20416-141.80352-341.20704z m-330.08128 611.28704c-7.74144 3.38944-16.46592 3.38944-24.68352 0-6.76352-2.89792-12.58496-8.22272-15.488-15.48288-6.77888-15.49312 0.48128-33.40288 15.488-40.18176 7.74144-3.38432 16.4608-3.38432 24.68352 0a30.2848 30.2848 0 0 1 15.48288 15.488c7.24992 15.488 0 33.38752-15.48288 40.17664z m145.66912-315.56096c-16.94208 29.0304-44.04736 50.3296-67.75808 69.20192-6.28736 4.84352-12.58496 9.68704-18.87232 15.00672-25.65632 22.26688-40.64768 54.69696-40.17152 88.57088 0 16.46592-13.54752 30.01344-29.99808 30.01344-16.46592 0-30.01856-13.54752-30.01856-30.01344 0-52.2752 23.22944-102.59968 61.95712-135.02976a390.016 390.016 0 0 1 20.80256-16.45568c20.3264-15.97952 41.63584-32.42496 52.76672-51.30752 15.00672-26.13248 10.62912-64.3584-10.65472-90.02496-27.09504-32.90624-74.53696-36.29056-93.90592-36.29056-109.85472 0-114.70336 88.56576-114.70336 98.72384-0.48128 16.46592-15.47776 28.07808-30.48448 30.01344-16.45568 0-30.0032-13.54752-30.0032-30.01344 0-54.69184 37.26848-158.74048 175.19104-158.74048 59.04896 0 110.35648 21.2992 140.84608 58.56256 36.31616 44.52352 43.07968 109.86496 15.00672 157.78304z" fill="#666666" /></svg>