<?xml version="1.0" standalone="no"?><!DOCTYPE svg PUBLIC "-//W3C//DTD SVG 1.1//EN" "http://www.w3.org/Graphics/SVG/1.1/DTD/svg11.dtd"><svg class="icon" width="200px" height="200.00px" viewBox="0 0 1024 1024" version="1.1" xmlns="http://www.w3.org/2000/svg"><path d="M512 11.776C228.352 11.776 0 210.944 0 458.752c0 137.216 70.144 257.536 179.2 340.992 8.192 6.656 12.8 14.848 12.8 24.576v158.208c0 23.04 26.112 37.376 45.568 26.112l169.472-102.912c6.656-3.072 12.8-5.12 19.456-3.072 27.648 5.12 55.296 6.656 84.992 6.656 282.112 0 512-200.704 512-446.976-1.024-251.392-229.376-450.56-511.488-450.56z m-3.072 727.552c-24.576 0-44.032-19.456-44.032-44.032 0-26.112 19.456-45.568 44.032-45.568s44.032 19.456 44.032 44.032c0 25.6-19.968 45.568-44.032 45.568z m158.208-334.336c-11.264 19.456-32.768 45.568-63.488 73.216-19.456 17.92-34.304 32.768-38.912 40.96-6.656 8.192-9.728 17.92-12.8 27.648-1.536 6.656-3.072 14.848-3.072 26.112-1.536 19.456-17.92 35.84-38.912 35.84-19.456 0-35.84-16.384-37.376-35.84-1.536-17.92-1.536-37.376 6.656-56.832 5.12-11.264 14.848-31.232 27.648-47.104 8.192-11.264 24.576-26.112 47.104-45.568 20.992-19.456 35.84-34.304 40.96-45.568 6.656-9.728 9.728-23.04 8.192-34.304 0-23.04-8.192-42.496-26.112-60.416s-38.912-26.112-65.024-26.112c-24.576 0-45.568 8.192-61.952 24.576-11.264 11.264-20.992 27.648-27.648 49.152-6.656 16.384-23.04 29.184-40.96 29.184h-5.12c-11.264-1.536-23.04-8.192-29.184-17.92-6.656-9.728-8.192-23.04-5.12-35.84 9.728-32.768 24.576-58.88 47.104-78.336 31.232-27.648 71.68-40.96 120.832-40.96 52.224 0 96.256 14.848 126.976 44.032 32.768 29.184 47.104 65.024 47.104 107.52 1.024 24.064-5.632 47.104-16.896 66.56z" /></svg>