<?xml version="1.0" standalone="no"?><!DOCTYPE svg PUBLIC "-//W3C//DTD SVG 1.1//EN" "http://www.w3.org/Graphics/SVG/1.1/DTD/svg11.dtd"><svg class="icon" width="200px" height="200.00px" viewBox="0 0 1024 1024" version="1.1" xmlns="http://www.w3.org/2000/svg"><path d="M106.666667 234.666667a405.333333 128 0 1 0 810.666666 0 405.333333 128 0 1 0-810.666666 0Z"  /><path d="M512 704c-178.133333 0-329.386667-36.266667-383.786667-86.613333a12.714667 12.714667 0 0 0-21.546666 9.173333V789.333333c0 70.613333 181.546667 128 405.333333 128s405.333333-57.386667 405.333333-128v-162.773333c0-11.306667-13.226667-16.853333-21.546666-9.173333C841.386667 667.733333 690.133333 704 512 704z"  /><path d="M512 426.666667c-178.133333 0-329.386667-36.266667-383.786667-86.613334a12.714667 12.714667 0 0 0-21.546666 9.173334V512c0 70.613333 181.546667 128 405.333333 128s405.333333-57.386667 405.333333-128v-162.773333c0-11.306667-13.226667-16.853333-21.546666-9.173334C841.386667 390.4 690.133333 426.666667 512 426.666667z"  /></svg>