<svg width="21" height="20" viewBox="0 0 21 20" fill="none" xmlns="http://www.w3.org/2000/svg">
<path d="M11.3334 5.83317H14.2501C14.4802 5.83317 14.6667 6.01972 14.6667 6.24984V7.08317C14.6667 7.31329 14.4802 7.49984 14.2501 7.49984H11.3334V13.7498C11.3334 13.98 11.1469 14.1665 10.9167 14.1665H10.0834C9.8533 14.1665 9.66675 13.98 9.66675 13.7498V7.49984H6.75008C6.51996 7.49984 6.33342 7.31329 6.33342 7.08317V6.24984C6.33342 6.01972 6.51996 5.83317 6.75008 5.83317H9.66675C9.66675 5.83317 11.3334 5.85678 11.3334 5.83317Z" fill="#1F2329"/>
<path fill-rule="evenodd" clip-rule="evenodd" d="M2.16675 2.49984C2.16675 2.0396 2.53984 1.6665 3.00008 1.6665H18.0001C18.4603 1.6665 18.8334 2.0396 18.8334 2.49984V17.4998C18.8334 17.9601 18.4603 18.3332 18.0001 18.3332H3.00008C2.53984 18.3332 2.16675 17.9601 2.16675 17.4998V2.49984ZM3.83341 16.6665V3.33317H17.1667V16.6665H3.83341Z" fill="#1F2329"/>
</svg>
