<svg width="21" height="20" viewBox="0 0 21 20" fill="none" xmlns="http://www.w3.org/2000/svg">
<path fill-rule="evenodd" clip-rule="evenodd" d="M6.33325 4.99984H18.8333C19.2935 4.99984 19.6666 5.37293 19.6666 5.83317V17.4998C19.6666 17.9601 19.2935 18.3332 18.8333 18.3332H2.16659C1.70635 18.3332 1.33325 17.9601 1.33325 17.4998V2.49984C1.33325 2.0396 1.70635 1.6665 2.16659 1.6665H6.33325V4.99984ZM2.99992 16.6665H17.9999V6.6665H4.66658V3.33317H2.99992V16.6665Z" fill="#1F2329"/>
<path d="M12.9999 3.33317H7.99992V1.6665H12.9999V3.33317Z" fill="#1F2329"/>
<path d="M18.8333 1.6665C19.2935 1.6665 19.6666 2.0396 19.6666 2.49984V3.33317H14.6666V1.6665H18.8333Z" fill="#1F2329"/>
</svg>
