<svg width="21" height="20" viewBox="0 0 21 20" fill="none" xmlns="http://www.w3.org/2000/svg">
<path d="M10.4999 17.7779C14.7955 17.7779 18.2777 14.2956 18.2777 10.0001C15.6851 10.0001 13.0925 10.0001 10.4999 10.0001C10.4999 6.88897 10.4999 4.29638 10.4999 2.2223C6.2044 2.2223 2.72217 5.70453 2.72217 10.0001C2.72217 14.2956 6.2044 17.7779 10.4999 17.7779ZM8.97217 10.639C8.97217 11.1299 9.37014 11.5279 9.86106 11.5279H16.6111C15.9219 14.2055 13.3927 16.1112 10.4999 16.1112C7.0713 16.1112 4.38883 13.3301 4.38883 9.9015C4.38883 7.00877 6.29457 4.57814 8.97217 3.88897V10.639Z" fill="#1F2329"/>
<path d="M12.9114 8.33342C12.5001 8.33342 12.1666 7.99995 12.1666 7.58859V1.66675C15.6855 2.01612 18.4839 4.81454 18.8333 8.33342H12.9114ZM13.8333 3.88897V6.66675H16.6111C16.1007 5.40633 15.0937 4.39929 13.8333 3.88897Z" fill="#1F2329"/>
</svg>
