<svg width="18" height="18" viewBox="0 0 18 18" fill="none" xmlns="http://www.w3.org/2000/svg">
<path fill-rule="evenodd" clip-rule="evenodd" d="M3 3V12H15V3H3ZM1.5 2.25C1.5 1.83562 1.8375 1.5 2.25 1.5H15.75C16.1625 1.5 16.5 1.83562 16.5 2.25V12.75C16.5 13.1644 16.1625 13.5 15.75 13.5H2.25C1.8375 13.5 1.5 13.1644 1.5 12.75V2.25Z" fill="currentColor"/>
<path d="M11.5789 5.09473L12.6394 6.15523L9.0881 9.70648L7.35635 7.9751L6.15523 9.1766L5.09473 8.11573L7.35635 5.8541L9.08773 7.58548L11.5789 5.09473Z" fill="currentColor"/>
<path d="M12.75 15H5.25V16.5H12.75V15Z" fill="currentColor"/>
</svg>
