<svg width="32" height="32" viewBox="0 0 32 32" fill="none" xmlns="http://www.w3.org/2000/svg">
<circle cx="16" cy="16" r="16" fill="#1CBA90"/>
<path d="M18.6667 16.4445H13.3333C10.8787 16.4445 8 18.1613 8 21.2445V23.6445C8 24.0863 8.39797 24.4445 8.88889 24.4445H23.1111C23.602 24.4445 24 24.0863 24 23.6445V21.2445C24 18.1587 21.1213 16.4445 18.6667 16.4445Z" fill="url(#paint0_linear_477_6741)"/>
<path d="M11.5556 11.1111C11.5556 13.5657 13.5454 15.5556 16 15.5556C18.4546 15.5556 20.4444 13.5657 20.4444 11.1111C20.4444 8.65653 18.4546 6.66669 16 6.66669C13.5454 6.66669 11.5556 8.65653 11.5556 11.1111Z" fill="url(#paint1_linear_477_6741)"/>
<defs>
<linearGradient id="paint0_linear_477_6741" x1="16" y1="6.66669" x2="16" y2="24.8889" gradientUnits="userSpaceOnUse">
<stop stop-color="#ffffff"/>
<stop offset="1" stop-color="#ffffff" stop-opacity="0"/>
</linearGradient>
<linearGradient id="paint1_linear_477_6741" x1="16" y1="6.66669" x2="16" y2="24.8889" gradientUnits="userSpaceOnUse">
<stop stop-color="#ffffff"/>
<stop offset="1" stop-color="#ffffff" stop-opacity="0"/>
</linearGradient>
</defs>
</svg>
