<svg width="16" height="16" viewBox="0 0 16 16" fill="none" xmlns="http://www.w3.org/2000/svg">
<path d="M8 8.00004C8.73638 8.00004 9.33334 8.59699 9.33334 9.33337C9.33334 9.82689 9.0652 10.2578 8.66667 10.4883V11.6667C8.66667 11.8508 8.51743 12 8.33334 12H7.66667C7.48257 12 7.33334 11.8508 7.33334 11.6667V10.4883C6.9348 10.2578 6.66667 9.82689 6.66667 9.33337C6.66667 8.59699 7.26362 8.00004 8 8.00004Z" fill="#646A73"/>
<path fill-rule="evenodd" clip-rule="evenodd" d="M8 1.33337C10.025 1.33337 11.6667 2.97337 11.6667 5.00004V5.33337H14C14.3683 5.33337 14.6667 5.63337 14.6667 6.00004V14C14.6667 14.3667 14.3683 14.6667 14 14.6667H2C1.63167 14.6667 1.33334 14.3667 1.33334 14V6.00004C1.33334 5.63337 1.63167 5.33337 2 5.33337H4.33334V5.00004C4.33334 2.97337 5.975 1.33337 8 1.33337ZM2.66667 13.3334H13.3333V6.66671H2.66667V13.3334ZM8 2.66671C6.71134 2.66671 5.66667 3.71004 5.66667 5.00004V5.33337H10.3333V5.00004C10.3333 3.71004 9.28867 2.66671 8 2.66671Z" fill="#646A73"/>
</svg>
