<svg width="12" height="12" viewBox="0 0 12 12" fill="none" xmlns="http://www.w3.org/2000/svg">
<g opacity="0.6">
<path d="M5.97112 5.23935L9.32987 1.8806C9.42751 1.78297 9.5858 1.78297 9.68343 1.8806L10.037 2.23415C10.1346 2.33178 10.1346 2.49007 10.037 2.5877L6.67823 5.94646L10.037 9.30522C10.1346 9.40285 10.1346 9.56114 10.037 9.65877L9.68343 10.0123C9.5858 10.11 9.42751 10.11 9.32987 10.0123L5.97112 6.65357L2.61236 10.0123C2.51473 10.11 2.35644 10.11 2.25881 10.0123L1.90525 9.65877C1.80762 9.56114 1.80762 9.40285 1.90525 9.30522L5.26401 5.94646L1.90525 2.5877C1.80762 2.49007 1.80762 2.33178 1.90525 2.23415L2.25881 1.8806C2.35644 1.78297 2.51473 1.78297 2.61236 1.8806L5.97112 5.23935Z" fill="#1F2329"/>
</g>
</svg>
