<svg width="16" height="16" viewBox="0 0 16 16" fill="none" xmlns="http://www.w3.org/2000/svg">
<path d="M7.99998 7.05718L12.4783 2.57883C12.6085 2.44866 12.8196 2.44866 12.9497 2.57883L13.4211 3.05024C13.5513 3.18041 13.5513 3.39147 13.4211 3.52164L8.94279 7.99998L13.4211 12.4783C13.5513 12.6085 13.5513 12.8196 13.4211 12.9497L12.9497 13.4211C12.8196 13.5513 12.6085 13.5513 12.4783 13.4211L7.99998 8.94279L3.52164 13.4211C3.39147 13.5513 3.18041 13.5513 3.05024 13.4211L2.57883 12.9497C2.44866 12.8196 2.44866 12.6085 2.57883 12.4783L7.05718 7.99998L2.57883 3.52164C2.44866 3.39147 2.44866 3.18041 2.57883 3.05024L3.05024 2.57883C3.18041 2.44866 3.39147 2.44866 3.52164 2.57883L7.99998 7.05718Z" fill="#8F959E"/>
</svg>
