<svg width="16" height="16" viewBox="0 0 16 16" xmlns="http://www.w3.org/2000/svg">
<path d="M8.17896 1.78057L14.8914 6.05213C15.0972 6.18312 15.0972 6.48359 14.8914 6.61457L8.17896 10.8861C8.06977 10.9556 7.93023 10.9556 7.82104 10.8861L1.10858 6.61457C0.902751 6.48359 0.90275 6.18312 1.10858 6.05213L7.82104 1.78057C7.93023 1.71108 8.06977 1.71108 8.17896 1.78057ZM3.15017 6.33335L8 9.41961L12.8498 6.33335L8 3.2471L3.15017 6.33335Z"/>
<path d="M1.73096 9.25743C1.57401 9.1612 1.36878 9.21042 1.27255 9.36736L0.924074 9.9357C0.827845 10.0926 0.877063 10.2979 1.03401 10.3941L7.13744 14.1364C7.56569 14.399 8.10095 14.399 8.52919 14.1364L14.6326 10.3941C14.7896 10.2979 14.8388 10.0926 14.7426 9.9357L14.3941 9.36736C14.2979 9.21042 14.0926 9.1612 13.9357 9.25743L7.92044 12.9457C7.86698 12.9784 7.79965 12.9784 7.7462 12.9457L1.73096 9.25743Z"/>
</svg>
