<svg width="16" height="16" viewBox="0 0 16 16" fill="none" xmlns="http://www.w3.org/2000/svg">
<path d="M1.99999 1.33325H4.99999C5.18409 1.33325 5.33333 1.48249 5.33333 1.66659V2.33325C5.33333 2.51735 5.18409 2.66659 4.99999 2.66659H2.66666V4.99992C2.66666 5.18401 2.51742 5.33325 2.33333 5.33325H1.66666C1.48257 5.33325 1.33333 5.18401 1.33333 4.99992V1.99992C1.33333 1.63173 1.63181 1.33325 1.99999 1.33325ZM14 14.6666H11C10.8159 14.6666 10.6667 14.5173 10.6667 14.3333V13.6666C10.6667 13.4825 10.8159 13.3333 11 13.3333H13.3333V10.9999C13.3333 10.8158 13.4826 10.6666 13.6667 10.6666H14.3333C14.5174 10.6666 14.6667 10.8158 14.6667 10.9999V13.9999C14.6667 14.3681 14.3682 14.6666 14 14.6666ZM1.33333 13.9999V10.9999C1.33333 10.8158 1.48257 10.6666 1.66666 10.6666H2.33333C2.51742 10.6666 2.66666 10.8158 2.66666 10.9999V13.3333H4.99999C5.18409 13.3333 5.33333 13.4825 5.33333 13.6666V14.3333C5.33333 14.5173 5.18409 14.6666 4.99999 14.6666H1.99999C1.63181 14.6666 1.33333 14.3681 1.33333 13.9999ZM14.6667 1.99992V4.99992C14.6667 5.18401 14.5174 5.33325 14.3333 5.33325H13.6667C13.4826 5.33325 13.3333 5.18401 13.3333 4.99992V2.66659H11C10.8159 2.66659 10.6667 2.51735 10.6667 2.33325V1.66659C10.6667 1.48249 10.8159 1.33325 11 1.33325H14C14.3682 1.33325 14.6667 1.63173 14.6667 1.99992Z" fill="#646A73"/>
</svg>
