<svg width="16" height="16" viewBox="0 0 16 16" fill="none" xmlns="http://www.w3.org/2000/svg">
<path d="M12.3594 8.65978L6.32239 8.63293C6.14037 8.63212 5.99302 8.48396 5.99227 8.30098L5.98967 7.6697C5.98891 7.48561 6.13675 7.33575 6.31988 7.33499C6.32083 7.33498 6.32178 7.33498 6.32272 7.33499L12.4811 7.36237L10.9553 5.8286C10.8258 5.69842 10.8258 5.48737 10.9553 5.35719L11.4243 4.88579C11.5538 4.75561 11.7637 4.75561 11.8932 4.88579L14.4724 7.47851C14.7314 7.73886 14.7314 8.16097 14.4724 8.42132L11.8932 11.014C11.7637 11.1442 11.5538 11.1442 11.4243 11.014L10.9553 10.5426C10.8258 10.4125 10.8258 10.2014 10.9553 10.0712L12.3594 8.65978ZM10.2864 2.66659H2.65971V13.3333H10.2864C10.4696 13.3333 10.618 13.4825 10.618 13.6666V14.3333C10.618 14.5173 10.4696 14.6666 10.2864 14.6666H1.99652C1.63025 14.6666 1.33333 14.3681 1.33333 13.9999V1.99992C1.33333 1.63173 1.63025 1.33325 1.99652 1.33325H10.2864C10.4696 1.33325 10.618 1.48249 10.618 1.66659V2.33325C10.618 2.51735 10.4696 2.66659 10.2864 2.66659Z" fill="currentColor"/>
</svg>
