<svg width="18" height="18" viewBox="0 0 18 18" fill="none" xmlns="http://www.w3.org/2000/svg">
<path d="M12.8057 13.6388C11.7701 14.4894 10.4447 15 9.00003 15C5.68632 15 3.00003 12.3137 3.00003 9C3.00003 8.69123 3.02335 8.38791 3.06833 8.0917L3.77428 8.50919C4.05573 8.67564 4.40051 8.42728 4.3318 8.10761L3.79257 5.59892C3.74659 5.385 3.52799 5.25572 3.31837 5.31849L0.860228 6.05455C0.546995 6.14835 0.495468 6.57013 0.77691 6.73657L1.6979 7.28123C1.56848 7.83317 1.50003 8.40859 1.50003 9C1.50003 13.1421 4.85789 16.5 9.00003 16.5C11.0063 16.5 12.8286 15.7122 14.1745 14.4291L12.8057 13.6388Z" fill="currentColor"/>
<path d="M5.4246 4.1812C6.42315 3.43909 7.66031 3 9.00003 3C12.3137 3 15 5.68629 15 9C15 9.21238 14.989 9.42219 14.9675 9.62887L14.145 9.16094C13.8608 8.99924 13.5203 9.25334 13.5943 9.57182L14.1756 12.0711C14.2251 12.2842 14.4459 12.4098 14.6544 12.3435L17.0999 11.5663C17.4115 11.4673 17.4559 11.0447 17.1717 10.883L16.365 10.424C16.4536 9.96297 16.5 9.48691 16.5 9C16.5 4.85786 13.1422 1.5 9.00003 1.5C7.09588 1.5 5.35746 2.20961 4.03481 3.3788L5.4246 4.1812Z" fill="currentColor"/>
</svg>
