<svg width="16" height="16" viewBox="0 0 16 16" fill="none" xmlns="http://www.w3.org/2000/svg">
<g clip-path="url(#clip0_3692_433)">
<g clip-path="url(#clip1_3692_433)">
<path d="M8.00002 3.66667C8.46025 3.66667 8.83335 4.03977 8.83335 4.5C8.83335 4.96023 8.46025 5.33333 8.00002 5.33333C7.53979 5.33333 7.16669 4.96023 7.16669 4.5C7.16669 4.03977 7.53979 3.66667 8.00002 3.66667Z" fill="#646A73"/>
<path d="M8.16669 6H7.33335C7.05721 6 6.83335 6.22386 6.83335 6.5V6.83333C6.83335 7.10948 7.05721 7.33333 7.33335 7.33333H7.50002V10.6667H6.83335C6.55721 10.6667 6.33335 10.8905 6.33335 11.1667V11.5C6.33335 11.7761 6.55721 12 6.83335 12H9.50002C9.77616 12 10 11.7761 10 11.5V11.1667C10 10.8905 9.77616 10.6667 9.50002 10.6667H8.83335V6.66667C8.83335 6.29848 8.53488 6 8.16669 6Z" fill="#646A73"/>
<path fill-rule="evenodd" clip-rule="evenodd" d="M8.00002 15.3332C3.95002 15.3332 0.666687 12.0498 0.666687 7.99984C0.666687 3.94984 3.95002 0.666504 8.00002 0.666504C12.05 0.666504 15.3334 3.94984 15.3334 7.99984C15.3334 12.0498 12.05 15.3332 8.00002 15.3332ZM8.00002 13.9998C11.3137 13.9998 14 11.3135 14 7.99984C14 4.68617 11.3137 1.99984 8.00002 1.99984C4.68636 1.99984 2.00002 4.68617 2.00002 7.99984C2.00002 11.3135 4.68636 13.9998 8.00002 13.9998Z" fill="#646A73"/>
</g>
</g>
<defs>
<clipPath id="clip0_3692_433">
<rect width="16" height="16" rx="4" fill="white"/>
</clipPath>
<clipPath id="clip1_3692_433">
<rect width="16" height="16" fill="white"/>
</clipPath>
</defs>
</svg>
