<svg width="16" height="16" viewBox="0 0 16 16" xmlns="http://www.w3.org/2000/svg">
<path d="M7.96583 1.78703C9.13864 1.78803 10.2887 2.01536 11.3384 2.44349L10.5144 3.46052C9.80941 3.21446 9.05752 3.07048 8.28858 3.03833L7.95808 3.03143L7.59923 3.03862C6.82439 3.07218 6.06177 3.2231 5.32578 3.49014C4.53228 3.77783 3.81743 4.18524 3.2016 4.70216C2.59845 5.20948 2.1244 5.79319 1.79475 6.43562C1.46089 7.0846 1.29112 7.76698 1.29112 8.45824C1.29112 9.1452 1.45971 9.81483 1.79119 10.4477C2.11777 11.067 2.58867 11.6282 3.18914 12.1142C3.80099 12.6078 4.51687 12.9972 5.31534 13.2702C6.14854 13.556 7.03742 13.7007 7.95622 13.7007C8.32646 13.7007 8.69485 13.6763 9.06098 13.6277L9.42633 13.5712L9.87386 13.4822L9.92024 13.4677C9.98171 13.4403 10.0407 13.3814 10.0853 13.3037C10.1508 13.1887 10.1779 13.049 10.1638 12.9113L10.1454 12.8088L10.1209 12.722L10.0754 12.5397C9.91783 11.8082 10.0536 11.0527 10.4583 10.4363C10.8947 9.7706 11.5955 9.35495 12.3563 9.30249L12.5202 9.29685H13.7008L13.7922 9.29074C14.1833 9.23822 14.5067 8.85337 14.5859 8.3706L14.5998 8.25756L14.6044 8.11144L14.6027 8.05416L14.5819 7.87007L14.5414 7.63164C14.4314 7.07787 14.2139 6.54267 13.8923 6.0357C13.8038 5.89531 13.7081 5.75834 13.6055 5.62499L14.4044 4.63789C14.6002 4.87122 14.7787 5.11515 14.9393 5.36894C15.3493 6.01516 15.6263 6.70619 15.7635 7.42183L15.8084 7.6913L15.8417 7.97987L15.8452 8.13982L15.8413 8.28567C15.7764 9.48991 14.9129 10.4539 13.8364 10.5291L13.7008 10.5338H12.5221C12.1161 10.5357 11.7347 10.752 11.4966 11.1149C11.3116 11.3985 11.2291 11.7439 11.2591 12.084L11.2789 12.2293L11.3387 12.462C11.4752 12.9498 11.4117 13.4821 11.1657 13.914C10.9695 14.2584 10.6727 14.5118 10.3299 14.6356L10.1994 14.6759L9.71784 14.7744C9.37012 14.8389 9.02123 14.8841 8.67152 14.91L8.32155 14.9293L7.95808 14.9358C6.90362 14.9358 5.87856 14.7685 4.91587 14.439C3.98119 14.1188 3.13984 13.6597 2.41283 13.0736C1.67994 12.4814 1.10258 11.7894 0.697402 11.0179C0.271905 10.2057 0.0560303 9.3427 0.0560303 8.45265C0.0560303 7.5609 0.270858 6.69043 0.695718 5.86288C1.10131 5.07206 1.67719 4.35966 2.4079 3.7455C3.13566 3.13441 3.9767 2.65448 4.91094 2.31711C5.67111 2.04594 6.45674 1.87817 7.25029 1.81701L7.59082 1.79733L7.94961 1.79025L7.96583 1.78703ZM3.6675 8.7277C4.17275 8.7277 4.58176 9.13843 4.58348 9.64368C4.58348 10.1489 4.17275 10.5597 3.6675 10.5597C3.16054 10.5597 2.75153 10.1489 2.75153 9.64368C2.75153 9.13843 3.16225 8.7277 3.6675 8.7277ZM13.8995 1.2254C14.0431 1.04584 14.3051 1.01673 14.4847 1.16037L14.8098 1.42047C14.9894 1.56411 15.0185 1.82612 14.8748 2.00568L8.47329 10.0076L7.52 10.4291C7.48834 10.4431 7.4531 10.4468 7.41919 10.4399C7.32909 10.4214 7.27103 10.3334 7.28952 10.2433L7.49794 9.22733L13.8995 1.2254ZM4.50021 5.39688C5.00545 5.39688 5.41618 5.80761 5.41618 6.31286C5.41618 6.81811 5.00545 7.22883 4.50021 7.22883C3.99324 7.22883 3.58423 6.81811 3.58423 6.31286C3.58423 5.80761 3.99496 5.39688 4.50021 5.39688ZM7.99757 4.14783C8.50453 4.14783 8.91354 4.55856 8.91354 5.0638C8.91354 5.56905 8.50281 5.97978 7.99757 5.97978C7.4906 5.97978 7.08159 5.56905 7.08159 5.0638C7.08159 4.55856 7.49232 4.14783 7.99757 4.14783Z"/>
</svg>
