<?xml version="1.0" standalone="no"?><!DOCTYPE svg PUBLIC "-//W3C//DTD SVG 1.1//EN" "http://www.w3.org/Graphics/SVG/1.1/DTD/svg11.dtd"><svg t="1752641977067" class="icon" viewBox="0 0 1024 1024" version="1.1" xmlns="http://www.w3.org/2000/svg" p-id="4591" xmlns:xlink="http://www.w3.org/1999/xlink" width="256" height="256"><path d="M512 983.04H143.36c-25.6 0-51.2-10.24-71.68-30.72-20.48-20.48-30.72-46.08-30.72-71.68V512c0-122.88 51.2-245.76 138.24-332.8C266.24 92.16 384 40.96 512 40.96c122.88 0 245.76 51.2 332.8 138.24C931.84 266.24 983.04 384 983.04 512c0 122.88-51.2 245.76-138.24 332.8-87.04 87.04-209.92 138.24-332.8 138.24z m0-849.92c-102.4 0-194.56 40.96-266.24 112.64S133.12 409.6 133.12 512v368.64c0 5.12 0 5.12 5.12 5.12l5.12 5.12H512c102.4 0 194.56-40.96 266.24-112.64S890.88 614.4 890.88 512s-40.96-194.56-112.64-266.24S614.4 133.12 512 133.12z" fill="" p-id="4592"></path><path d="M322.56 471.04h373.76c15.36 0 25.6 10.24 25.6 25.6v35.84c0 15.36-10.24 25.6-25.6 25.6H322.56c-15.36 0-25.6-10.24-25.6-25.6v-35.84c0-15.36 15.36-25.6 25.6-25.6z" fill="" p-id="4593"></path><path d="M552.96 322.56v373.76c0 15.36-10.24 25.6-25.6 25.6h-30.72c-15.36 0-25.6-10.24-25.6-25.6V322.56c0-15.36 10.24-25.6 25.6-25.6h35.84c10.24 0 20.48 15.36 20.48 25.6z" fill="" p-id="4594"></path></svg>