<svg width="16" height="16" viewBox="0 0 16 16" fill="none" xmlns="http://www.w3.org/2000/svg">
<path d="M6 8.66667H10C11.841 8.66667 14 9.95237 14 12.2667V14.0667C14 14.398 13.7015 14.6667 13.3333 14.6667H2.66667C2.29848 14.6667 2 14.398 2 14.0667V12.2667C2 9.95432 4.15905 8.66667 6 8.66667ZM12.6667 13.3333V12.2222C12.6667 10.8212 11.2473 10 10 10H6C4.77998 10 3.33333 10.7811 3.33333 12.2222V13.3333H12.6667ZM8 8C6.15905 8 4.66667 6.50762 4.66667 4.66667C4.66667 2.82572 6.15905 1.33333 8 1.33333C9.84095 1.33333 11.3333 2.82572 11.3333 4.66667C11.3333 6.50762 9.84095 8 8 8ZM8 6.66667C9.10457 6.66667 10 5.77123 10 4.66667C10 3.5621 9.10457 2.66667 8 2.66667C6.89543 2.66667 6 3.5621 6 4.66667C6 5.77123 6.89543 6.66667 8 6.66667Z" fill="#1F2329"/>
</svg>
