<svg width="16" height="16" viewBox="0 0 16 16" fill="none" xmlns="http://www.w3.org/2000/svg">
<path d="M9.37253 7.37638C8.49177 8.29461 8 9.51773 8 10.7901C8 12.1866 8.59209 13.5176 9.62929 14.4527L10.293 15.0511C10.3773 15.1354 10.4824 15.196 10.5976 15.2268C10.7128 15.2576 10.834 15.2575 10.9492 15.2265C11.0643 15.1955 11.1692 15.1347 11.2534 15.0503C11.3376 14.9658 11.398 14.8607 11.4287 14.7455L14.8723 2.54916C14.9666 2.21511 14.5512 1.97734 14.3109 2.22784L9.37253 7.37638Z" fill="white"/>
<path d="M13.7768 1.68461C14.0305 1.44129 13.7835 1.02182 13.4477 1.12556L1.28049 4.8839C1.165 4.9142 1.05956 4.97442 0.974792 5.0585C0.890025 5.14258 0.828938 5.24753 0.797696 5.36276C0.766454 5.47799 0.766163 5.59942 0.796852 5.7148C0.827541 5.83018 0.888124 5.93542 0.972486 6.0199L1.7232 6.84202C2.5779 7.778 3.78692 8.31123 5.05442 8.31123C6.21832 8.31123 7.33717 7.86138 8.17714 7.0557L13.7768 1.68461Z" fill="white"/>
</svg>
