<svg width="16" height="16" viewBox="0 0 16 16" fill="none" xmlns="http://www.w3.org/2000/svg">
<path d="M2.66666 1.66667C2.66666 1.29848 2.96513 1 3.33332 1H9.86192C9.95032 1 10.0351 1.03512 10.0976 1.09763L13.2357 4.2357C13.2982 4.29821 13.3333 4.383 13.3333 4.4714V14.3333C13.3333 14.7015 13.0348 15 12.6667 15H3.33332C2.96513 15 2.66666 14.7015 2.66666 14.3333V1.66667Z" fill="#34C724"/>
<path d="M10 1.03003C10.036 1.04641 10.0691 1.06922 10.0976 1.09772L13.2357 4.23579C13.2642 4.2643 13.287 4.29743 13.3034 4.33342H10.6667C10.2985 4.33342 10 4.03495 10 3.66676V1.03003Z" fill="#2CA91F"/>
<path d="M7.53869 9.06384L5.55469 11.9998H6.40269L7.98669 9.63984L9.52269 11.9998H10.4507L8.44269 9.06384L10.3307 6.28784H9.48269L7.99469 8.51984L6.57069 6.28784H5.65869L7.53869 9.06384Z" fill="white"/>
</svg>
