<svg width="16" height="16" viewBox="0 0 16 16" fill="none" xmlns="http://www.w3.org/2000/svg">
<path d="M12 5.33309C11.2636 5.33309 10.6667 4.73616 10.6667 3.99981V1.99989C10.6667 1.63172 10.9651 1.33325 11.3333 1.33325C11.7015 1.33325 12 1.63172 12 1.99989V3.99981H14C14.3682 3.99981 14.6667 4.29827 14.6667 4.66645C14.6667 5.03462 14.3682 5.33309 14 5.33309H12ZM3.99999 10.6662C4.73637 10.6662 5.33333 11.2631 5.33333 11.9995V13.9994C5.33333 14.3676 5.03485 14.666 4.66666 14.666C4.29847 14.666 3.99999 14.3676 3.99999 13.9994V11.9995H1.99999C1.63181 11.9995 1.33333 11.701 1.33333 11.3328C1.33333 10.9647 1.63181 10.6662 1.99999 10.6662H3.99999ZM10.6667 11.9995C10.6667 11.2631 11.2636 10.6662 12 10.6662H14C14.3682 10.6662 14.6667 10.9647 14.6667 11.3328C14.6667 11.701 14.3682 11.9995 14 11.9995H12V13.9994C12 14.3676 11.7015 14.666 11.3333 14.666C10.9651 14.666 10.6667 14.3676 10.6667 13.9994V11.9995ZM5.33333 3.99981C5.33333 4.73616 4.73637 5.33309 3.99999 5.33309H1.99999C1.63181 5.33309 1.33333 5.03462 1.33333 4.66645C1.33333 4.29827 1.63181 3.99981 1.99999 3.99981H3.99999V1.99989C3.99999 1.63172 4.29847 1.33325 4.66666 1.33325C5.03485 1.33325 5.33333 1.63172 5.33333 1.99989V3.99981Z" fill="#1F2329"/>
</svg>
