<svg width="16" height="16" viewBox="0 0 16 16" xmlns="http://www.w3.org/2000/svg">
<path d="M3.33333 5.3335V13.3335H10V5.3335H3.33333ZM11.3333 4.66683V14.0742C11.3333 14.4015 11.0548 14.6668 10.7111 14.6668H2.62222C2.27858 14.6668 2 14.4015 2 14.0742V4.59276C2 4.26548 2.27858 4.00016 2.62222 4.00016H10.6667C11.0349 4.00016 11.3333 4.29864 11.3333 4.66683ZM13.8047 1.52876C13.9254 1.6494 14 1.81607 14 2.00016V10.3335C14 10.5176 13.8508 10.6668 13.6667 10.6668H13C12.8159 10.6668 12.6667 10.5176 12.6667 10.3335V2.66683H6.33333C6.14924 2.66683 6 2.51759 6 2.3335V1.66683C6 1.48273 6.14924 1.3335 6.33333 1.3335H13.3333C13.5174 1.3335 13.6841 1.40812 13.8047 1.52876Z"/>
</svg>
