<svg width="16" height="16" viewBox="0 0 16 16" fill="none" xmlns="http://www.w3.org/2000/svg">
<path fill-rule="evenodd" clip-rule="evenodd" d="M8 14C11.3137 14 14 11.3137 14 7.99996C14 4.68625 11.3137 1.99996 8 1.99996C4.68629 1.99996 2 4.68625 2 7.99996C2 11.3137 4.68629 14 8 14ZM8 15.3333C3.94991 15.3333 0.666664 12.05 0.666664 7.99996C0.666664 3.94987 3.94991 0.666626 8 0.666626C12.0501 0.666626 15.3333 3.94987 15.3333 7.99996C15.3333 12.05 12.0501 15.3333 8 15.3333ZM7.66666 10.6666H8.33333C8.51742 10.6666 8.66666 10.8159 8.66666 11V11.6666C8.66666 11.8507 8.51742 12 8.33333 12H7.66666C7.48257 12 7.33333 11.8507 7.33333 11.6666V11C7.33333 10.8159 7.48257 10.6666 7.66666 10.6666ZM5.36657 6.18777C5.37504 6.11325 5.38372 6.05127 5.3926 6.0018C5.52256 5.27808 5.85169 4.74585 6.38001 4.4051C6.79377 4.135 7.30221 3.99996 7.90532 3.99996C8.69779 3.99996 9.35612 4.19187 9.88034 4.57569C10.4046 4.95951 10.6667 5.52812 10.6667 6.28155C10.6667 6.74356 10.5527 7.1327 10.3248 7.449C10.1915 7.64091 9.93557 7.88613 9.55687 8.18466L9.18343 8.47785C8.98005 8.63778 8.84505 8.82435 8.77843 9.03759C8.7603 9.09578 8.74436 9.20396 8.73063 9.36212C8.71568 9.5344 8.57147 9.66663 8.39855 9.66663H7.65227C7.46818 9.66662 7.31894 9.51739 7.31894 9.33329C7.31894 9.32304 7.31941 9.31279 7.32036 9.30258C7.36328 8.83865 7.40925 8.54508 7.45825 8.42188C7.54941 8.19265 7.78435 7.92878 8.16305 7.63025L8.547 7.32639C8.67324 7.23044 9.32371 6.77239 9.32371 6.36684C9.32371 5.9613 9.25306 5.81213 9.04944 5.58956C8.84582 5.36699 8.38746 5.29535 7.9737 5.29535C7.56694 5.29535 7.21936 5.40337 7.0493 5.67702C6.97053 5.80376 6.90612 5.93897 6.85967 6.07692C6.84139 6.13119 6.8252 6.19947 6.81109 6.28176C6.78365 6.44178 6.64491 6.55875 6.48255 6.55875H5.69777C5.51368 6.55876 5.36443 6.40952 5.36443 6.22542C5.36443 6.21284 5.36515 6.20027 5.36657 6.18777Z" fill="#646A73"/>
</svg>
