<svg width="16" height="16" viewBox="0 0 16 16" fill="none" xmlns="http://www.w3.org/2000/svg">
<g clip-path="url(#clip0_2544_1401)">
<path d="M3.73867 8.73602V8.60268H2.66334L2.66135 8.734C2.65754 8.98598 2.70329 9.21145 2.80442 9.40561C2.90233 9.5936 3.03455 9.74991 3.20082 9.87263L3.20203 9.87351C3.36921 9.99404 3.55868 10.0807 3.76898 10.1344C3.97928 10.1906 4.19507 10.2187 4.416 10.2187C4.68537 10.2187 4.92661 10.1874 5.13772 10.1222C5.34953 10.0578 5.53141 9.96697 5.67895 9.84733C5.82899 9.72494 5.94356 9.57894 6.02015 9.40964C6.09601 9.24197 6.13334 9.06131 6.13334 8.86935C6.13334 8.63802 6.08334 8.43592 5.97253 8.27309C5.87482 8.1211 5.75572 7.99735 5.61456 7.90459C5.48064 7.81658 5.34261 7.75189 5.20056 7.71216C5.07733 7.67348 4.97613 7.64563 4.89892 7.62996C4.66254 7.56998 4.47032 7.5206 4.32217 7.4818C4.18064 7.44382 4.07352 7.40715 3.99789 7.3726C3.92609 7.33813 3.89826 7.30961 3.88956 7.29547C3.87803 7.27674 3.86667 7.24293 3.86667 7.18402C3.86667 7.12134 3.88021 7.08142 3.89761 7.05531C3.92304 7.01716 3.95439 6.98564 3.99235 6.96004C4.03514 6.93357 4.08212 6.91477 4.13414 6.90382C4.19286 6.89146 4.25121 6.88535 4.30934 6.88535C4.40492 6.88535 4.48987 6.89361 4.56481 6.90922L4.56586 6.90943C4.64088 6.92443 4.70343 6.94921 4.75547 6.98208C4.80208 7.01152 4.83964 7.05219 4.86848 7.10726L4.87091 7.1115C4.90072 7.16367 4.92203 7.23657 4.92826 7.33633L4.93608 7.46135H6.00534V7.32802C6.00534 7.09133 5.95965 6.88157 5.86133 6.70464C5.76989 6.53032 5.644 6.38646 5.48447 6.27479C5.32736 6.16481 5.14822 6.08731 4.94881 6.04111C4.75649 5.99222 4.55565 5.96802 4.34667 5.96802C4.16381 5.96802 3.98143 5.9928 3.79982 6.04199C3.61498 6.09205 3.44756 6.16962 3.29878 6.27533C3.14797 6.38248 3.02495 6.51757 2.93027 6.67933L2.92975 6.68022C2.8343 6.84623 2.78934 7.03896 2.78934 7.25335C2.78934 7.44369 2.82424 7.615 2.90003 7.76237L2.90228 7.76639C2.97842 7.90264 3.07736 8.018 3.19888 8.11117C3.31613 8.20106 3.448 8.27456 3.5937 8.33207L3.59658 8.33313C3.73566 8.38437 3.87827 8.42828 4.02439 8.46488C4.16415 8.50427 4.30222 8.54013 4.43861 8.57243C4.56859 8.60321 4.68303 8.6387 4.78249 8.67848C4.87673 8.71618 4.9454 8.76071 4.99369 8.809L4.99631 8.81148C5.03427 8.84744 5.056 8.89448 5.056 8.96535C5.056 9.03645 5.03826 9.08575 5.01049 9.1221C4.97402 9.16595 4.92808 9.20164 4.87068 9.22897C4.80849 9.25858 4.74134 9.27972 4.66871 9.29206C4.58912 9.30191 4.51561 9.30668 4.448 9.30668C4.34867 9.30668 4.25322 9.29556 4.16139 9.27358C4.07288 9.24895 3.9976 9.21466 3.93406 9.17185C3.87729 9.12795 3.83015 9.07134 3.79297 8.99984C3.75899 8.93449 3.73867 8.84838 3.73867 8.73602Z" fill="#646A73"/>
<path fill-rule="evenodd" clip-rule="evenodd" d="M10.2466 9.94027L9.76453 9.50154C9.89576 9.33147 9.999 9.14082 10.0744 8.93031C10.1654 8.67634 10.2102 8.40321 10.2102 8.11202C10.2102 7.81422 10.1655 7.53603 10.0747 7.27861C9.98413 7.01826 9.85308 6.78965 9.68086 6.59447C9.50763 6.39814 9.29627 6.24478 9.04854 6.13425C8.79773 6.02235 8.51563 5.96802 8.20488 5.96802C7.89739 5.96802 7.61566 6.02245 7.36191 6.13395L7.36122 6.13425C7.11349 6.24478 6.90213 6.39814 6.7289 6.59447C6.55668 6.78965 6.42563 7.01826 6.33504 7.27861C6.24423 7.53603 6.19955 7.81422 6.19955 8.11202C6.19955 8.40323 6.2446 8.67849 6.33536 8.93565C6.42619 9.18923 6.55751 9.41248 6.72977 9.60388C6.90298 9.79633 7.11407 9.94754 7.36121 10.0578L7.36347 10.0588C7.61681 10.1662 7.89799 10.2187 8.20488 10.2187C8.54657 10.2187 8.84904 10.157 9.10788 10.0284L9.67291 10.5375L10.2466 9.94027ZM7.99383 9.0156L8.25449 9.25292C8.23906 9.2532 8.22254 9.25335 8.20488 9.25335C8.03357 9.25335 7.89695 9.22116 7.78948 9.16337C7.67567 9.09855 7.58492 9.01487 7.51532 8.91198C7.44279 8.80476 7.38851 8.68421 7.35299 8.54934C7.32006 8.40712 7.30355 8.26141 7.30355 8.11202C7.30355 7.95494 7.32019 7.80356 7.35324 7.65764C7.38898 7.51532 7.44338 7.39175 7.51533 7.2854L7.51631 7.28391C7.58591 7.17798 7.67606 7.09534 7.7883 7.03467L7.79069 7.03331C7.89782 6.97251 8.03391 6.93868 8.20488 6.93868C8.37585 6.93868 8.51193 6.97253 8.61905 7.03333L8.62148 7.03465C8.73371 7.09531 8.82383 7.17799 8.89344 7.28391L8.89444 7.28539C8.96607 7.39128 9.01858 7.51433 9.05083 7.65624L9.05153 7.65902C9.0879 7.80451 9.10621 7.95541 9.10621 8.11202C9.10621 8.30609 9.0857 8.46484 9.04784 8.59104C9.02681 8.66112 9.00248 8.7236 8.97519 8.77896L8.56555 8.40472L7.99383 9.0156Z" fill="#646A73"/>
<path d="M11.6199 6.05868H10.5159V10.1334H13.4759V9.16268H11.6199V6.05868Z" fill="#646A73"/>
<path d="M1.33334 15.3334C0.965149 15.3334 0.666672 15.0349 0.666672 14.6667V1.33341C0.666672 0.965225 0.965149 0.666748 1.33334 0.666748H14.6667C15.0349 0.666748 15.3333 0.965225 15.3333 1.33341V14.6667C15.3333 15.0349 15.0349 15.3334 14.6667 15.3334H1.33334ZM2.00001 14.0001H14V2.00008H2.00001V14.0001Z" fill="#646A73"/>
</g>
<defs>
<clipPath id="clip0_2544_1401">
<rect width="16" height="16" fill="white"/>
</clipPath>
</defs>
</svg>
