<svg width="16" height="16" viewBox="0 0 16 16" fill="none" xmlns="http://www.w3.org/2000/svg">
<path d="M10.3334 4.33333C10.3334 2.49233 8.84004 1 7.00004 1C5.16004 1 3.66671 2.49233 3.66671 4.33333C3.66671 6.17433 5.16004 7.66667 7.00004 7.66667C8.84004 7.66667 10.3334 6.17433 10.3334 4.33333ZM7.00004 6.33333C5.89671 6.33333 5.00004 5.438 5.00004 4.33333C5.00004 3.22867 5.89671 2.33333 7.00004 2.33333C8.10337 2.33333 9.00004 3.22867 9.00004 4.33333C9.00004 5.438 8.10337 6.33333 7.00004 6.33333Z" fill="#646A73"/>
<path d="M2.66671 12.6667C2.66671 12.4363 2.69671 12.213 2.75004 12C3.04671 10.85 4.09004 10 5.33337 10H8.01668C8.20077 10 8.35001 9.85076 8.35001 9.66667V9C8.35001 8.81591 8.20077 8.66667 8.01668 8.66667H5.33337C3.12337 8.66667 1.33337 10.4577 1.33337 12.6667V14C1.33337 14.3683 1.63337 14.6667 2.00004 14.6667H8.01668C8.20077 14.6667 8.35001 14.5174 8.35001 14.3333V13.6667C8.35001 13.4826 8.20077 13.3333 8.01668 13.3333H2.66671V12.6667Z" fill="#646A73"/>
<path d="M12.1312 10.3738L13.11 11.3526H9.66671C9.48261 11.3526 9.33337 11.5019 9.33337 11.686V12.3526C9.33337 12.5367 9.48261 12.686 9.66671 12.686H13.1188L12.1312 13.6736C12.001 13.8038 12.001 14.0148 12.1312 14.145L12.6026 14.6164C12.7328 14.7466 12.9438 14.7466 13.074 14.6164L15.431 12.2594C15.5612 12.1292 15.5612 11.9182 15.431 11.788L13.074 9.43096C12.9438 9.30079 12.7328 9.30079 12.6026 9.43096L12.1312 9.90237C12.001 10.0325 12.001 10.2436 12.1312 10.3738Z" fill="#646A73"/>
</svg>
