<svg width="16" height="16" viewBox="0 0 16 16" fill="none" xmlns="http://www.w3.org/2000/svg">
<g clip-path="url(#clip0_1515_53088)">
<path d="M7.99984 15.3334C12.0499 15.3334 15.3332 12.0502 15.3332 8.00008C15.3332 3.94999 12.0499 0.666748 7.99984 0.666748C3.94975 0.666748 0.666504 3.94999 0.666504 8.00008C0.666504 12.0502 3.94975 15.3334 7.99984 15.3334Z" fill="#1CBA90"/>
<path d="M7.53927 5.64121C7.57971 5.65796 7.62306 5.66659 7.66683 5.66659H8.3335C8.37727 5.66659 8.42062 5.65796 8.46106 5.64121C8.5015 5.62446 8.53825 5.59991 8.5692 5.56895C8.60015 5.538 8.62471 5.50126 8.64146 5.46081C8.65821 5.42037 8.66683 5.37703 8.66683 5.33325V4.66658C8.66683 4.62281 8.65821 4.57947 8.64146 4.53902C8.62471 4.49858 8.60015 4.46184 8.5692 4.43088C8.53825 4.39993 8.5015 4.37538 8.46106 4.35863C8.42062 4.34187 8.37727 4.33325 8.3335 4.33325H7.66683C7.62306 4.33325 7.57971 4.34187 7.53927 4.35863C7.49883 4.37538 7.46208 4.39993 7.43113 4.43088C7.40017 4.46184 7.37562 4.49858 7.35887 4.53902C7.34212 4.57947 7.3335 4.62281 7.3335 4.66658V5.33325C7.3335 5.37703 7.34212 5.42037 7.35887 5.46081C7.37562 5.50126 7.40017 5.538 7.43113 5.56895C7.46208 5.59991 7.49883 5.62446 7.53927 5.64121Z" fill="white"/>
<path d="M7.3335 7.66659V10.3333H6.66683C6.62306 10.3333 6.57971 10.3419 6.53927 10.3586C6.49883 10.3754 6.46208 10.3999 6.43113 10.4309C6.40017 10.4618 6.37562 10.4986 6.35887 10.539C6.34212 10.5795 6.3335 10.6228 6.3335 10.6666V11.3333C6.3335 11.377 6.34212 11.4204 6.35887 11.4608C6.37562 11.5013 6.40017 11.538 6.43113 11.569C6.46208 11.5999 6.49883 11.6245 6.53927 11.6412C6.57971 11.658 6.62306 11.6666 6.66683 11.6666H9.3335C9.37727 11.6666 9.42062 11.658 9.46106 11.6412C9.5015 11.6245 9.53825 11.5999 9.5692 11.569C9.60015 11.538 9.62471 11.5013 9.64146 11.4608C9.65821 11.4204 9.66683 11.377 9.66683 11.3333V10.6666C9.66683 10.6228 9.65821 10.5795 9.64146 10.539C9.62471 10.4986 9.60015 10.4618 9.5692 10.4309C9.53825 10.3999 9.5015 10.3754 9.46106 10.3586C9.42062 10.3419 9.37727 10.3333 9.3335 10.3333H8.66683V6.66659C8.66696 6.62277 8.65843 6.57937 8.64173 6.53887C8.62502 6.49837 8.60047 6.46157 8.56949 6.43059C8.53851 6.39961 8.50172 6.37506 8.46121 6.35836C8.42071 6.34165 8.37731 6.33312 8.3335 6.33325H7.00016C6.95639 6.33325 6.91304 6.34187 6.8726 6.35863C6.83216 6.37538 6.79541 6.39993 6.76446 6.43088C6.73351 6.46184 6.70895 6.49858 6.6922 6.53902C6.67545 6.57947 6.66683 6.62281 6.66683 6.66659V7.33325C6.66683 7.37703 6.67545 7.42037 6.6922 7.46081C6.70895 7.50126 6.73351 7.538 6.76446 7.56895C6.79541 7.59991 6.83216 7.62446 6.8726 7.64121C6.91304 7.65796 6.95639 7.66659 7.00016 7.66659H7.3335Z" fill="white"/>
</g>
<defs>
<clipPath id="clip0_1515_53088">
<rect width="16" height="16" fill="white"/>
</clipPath>
</defs>
</svg>
