<svg width="16" height="16" viewBox="0 0 16 16" fill="none" xmlns="http://www.w3.org/2000/svg">
<path d="M14 12.3333V14C14 14.3682 13.7015 14.6667 13.3333 14.6667H2.66667C2.29848 14.6667 2 14.3682 2 14V12.3333C2 12.1492 2.14924 12 2.33333 12H3C3.18409 12 3.33333 12.1492 3.33333 12.3333V13.3333H12.6667V12.3333C12.6667 12.1492 12.8159 12 13 12H13.6667C13.8508 12 14 12.1492 14 12.3333ZM8.66667 4.33329L10.6736 6.34027C10.8038 6.47045 11.0149 6.47045 11.1451 6.34027L11.6165 5.86887C11.7466 5.73869 11.7466 5.52764 11.6165 5.39746L8.31663 2.09763C8.25154 2.03254 8.16623 2 8.08092 2C7.99562 2 7.91031 2.03254 7.84522 2.09763L4.54539 5.39746C4.41521 5.52764 4.41521 5.73869 4.54539 5.86887L5.01679 6.34027C5.14697 6.47045 5.35802 6.47045 5.4882 6.34027L7.33334 4.49513V11.6904C7.33334 11.8745 7.48257 12.0238 7.66667 12.0238H8.33334C8.51743 12.0238 8.66667 11.8745 8.66667 11.6904V4.33329Z" fill="#2B2F36"/>
</svg>
