<svg width="20" height="20" viewBox="0 0 20 20" xmlns="http://www.w3.org/2000/svg">
<path d="M0.833332 7.40037C0.833332 7.04018 1.20268 6.79815 1.53293 6.94194L8.77366 10.0945C8.95609 10.1739 9.07406 10.3539 9.07406 10.5529V18.339C9.07406 18.7151 8.67437 18.9566 8.34143 18.7816L1.14374 14.9982C1.05097 14.9474 0.973518 14.8737 0.919075 14.7847C0.864631 14.6956 0.835098 14.5943 0.833414 14.4907L0.833332 14.4814V7.40037ZM18.4645 6.9322C18.795 6.78604 19.1667 7.02807 19.1667 7.38949V14.4814C19.1666 14.5866 19.1379 14.6899 19.0834 14.7807C19.0288 14.8715 18.9504 14.9466 18.8563 14.9982L11.6586 18.7816C11.3256 18.9566 10.9259 18.7151 10.9259 18.339L10.9259 10.5912C10.9259 10.3932 11.0427 10.2139 11.2237 10.1339L18.4645 6.9322ZM9.6999 1.74337C9.79149 1.69312 9.89485 1.66672 10 1.66672C10.1051 1.66672 10.2085 1.69312 10.3001 1.74337L17.1981 4.80724C17.5963 4.9841 17.5934 5.55021 17.1935 5.72313L10.1984 8.74754C10.0718 8.80229 9.92819 8.80229 9.80157 8.74754L2.80646 5.72313C2.40653 5.55021 2.40373 4.9841 2.80193 4.80724L9.6999 1.74337Z"/>
</svg>
