<svg width="16" height="16" viewBox="0 0 16 16" fill="none" xmlns="http://www.w3.org/2000/svg">
<path d="M14.0018 1.77783C14.3393 1.77783 14.6182 2.02864 14.6624 2.35404L14.6685 2.4445V13.5619C14.6685 13.8994 14.4177 14.1784 14.0923 14.2225L14.0018 14.2286H9.89135C9.73027 14.2286 9.59587 14.1143 9.56479 13.9624L9.55802 13.8953V13.2286C9.55802 13.0675 9.67228 12.9331 9.82417 12.902L9.89135 12.8953H13.3351V3.11117H4.40531L4.4062 6.11374C4.4062 6.29784 4.25696 6.44708 4.07287 6.44708H3.4062C3.22211 6.44708 3.07287 6.29784 3.07287 6.11374V2.11117C3.07287 1.95008 3.18713 1.81569 3.33902 1.7846L3.4062 1.77783H14.0018ZM6.64081 7.59331C6.73892 7.59331 6.83386 7.62809 6.90876 7.69146L9.70361 10.0563C9.8785 10.2043 9.90031 10.4661 9.75233 10.6409C9.73747 10.6585 9.72117 10.6748 9.70361 10.6897L6.90876 13.0545C6.73387 13.2025 6.47213 13.1807 6.32415 13.0058C6.26077 12.9309 6.226 12.836 6.226 12.7379L6.22649 11.1169L2.11133 11.1169C1.92724 11.1169 1.778 10.9677 1.778 10.7836V10.1169C1.778 9.93279 1.92724 9.78356 2.11133 9.78356L6.22649 9.78354L6.226 8.00813C6.226 7.77903 6.41172 7.59331 6.64081 7.59331Z" fill="#646A73"/>
</svg>
