<svg width="14" height="14" viewBox="0 0 14 14" fill="none" xmlns="http://www.w3.org/2000/svg">
<path fill-rule="evenodd" clip-rule="evenodd" d="M9.33317 6.66807V12.5416C9.33317 12.7027 9.20259 12.8333 9.0415 12.8333H8.45817C8.29709 12.8333 8.1665 12.7027 8.1665 12.5416V6.41663C8.1665 6.3309 8.185 6.24949 8.21821 6.17618C8.26253 6.06615 8.34187 5.96924 8.45144 5.90383L11.6665 3.98466V2.33329H2.33317V4.00501L5.45111 5.86895C5.6741 5.95092 5.83317 6.1652 5.83317 6.41663V10.5C5.83317 10.661 5.70259 10.7916 5.5415 10.7916H4.95817C4.79709 10.7916 4.6665 10.661 4.6665 10.5V6.68798L1.4429 4.76088C1.37054 4.71762 1.31141 4.66061 1.26688 4.59514C1.20538 4.54167 1.1665 4.46286 1.1665 4.37496V1.74996C1.1665 1.42779 1.42767 1.16663 1.74984 1.16663H12.2498C12.4109 1.16663 12.5568 1.23192 12.6623 1.33748C12.7679 1.44304 12.8332 1.58888 12.8332 1.74996V4.19593C12.8377 4.2369 12.8376 4.27801 12.8332 4.31851V4.37496C12.8332 4.4732 12.7846 4.5601 12.7102 4.61294C12.6698 4.66245 12.6203 4.70587 12.5624 4.74046L9.33317 6.66807Z" fill="#1F2329"/>
</svg>
