<svg width="16" height="16" viewBox="0 0 16 16" fill="none" xmlns="http://www.w3.org/2000/svg">
<path d="M7.99992 0.333252C3.76574 0.333252 0.333252 3.76574 0.333252 7.99992C0.333252 12.2341 3.76574 15.6666 7.99992 15.6666C12.2341 15.6666 15.6666 12.2341 15.6666 7.99992C15.6666 3.76574 12.2341 0.333252 7.99992 0.333252ZM12.6514 11.2374L4.76246 3.34847C5.68019 2.70844 6.79587 2.33325 7.99992 2.33325C11.1295 2.33325 13.6666 4.87031 13.6666 7.99992C13.6666 9.20397 13.2914 10.3196 12.6514 11.2374ZM2.33325 7.99992C2.33325 6.79599 2.70837 5.68041 3.34829 4.76272L11.2371 12.6516C10.3194 13.2915 9.20385 13.6666 7.99992 13.6666C4.87031 13.6666 2.33325 11.1295 2.33325 7.99992Z" fill="#8F959E"/>
</svg>
