<svg width="20" height="20" viewBox="0 0 20 20" fill="none" xmlns="http://www.w3.org/2000/svg">
<path d="M9.14578 2.76511L9.73504 3.35436C9.89776 3.51708 9.89776 3.7809 9.73504 3.94362L4.51184 9.1664L18.7501 9.16676C18.9802 9.16676 19.1667 9.3533 19.1667 9.58342V10.4168C19.1667 10.6469 18.9802 10.8334 18.7501 10.8334L4.51143 10.8331L9.73504 16.0566C9.88524 16.2068 9.8968 16.4431 9.7697 16.6066L9.73504 16.6458L9.14578 17.2351C8.99558 17.3853 8.75924 17.3968 8.59578 17.2697L8.55653 17.2351L1.65805 10.3366C1.56598 10.2445 1.526 10.1201 1.53813 9.9999C1.52606 9.87991 1.56605 9.75559 1.65805 9.66358L8.55653 2.76511C8.71925 2.60239 8.98307 2.60239 9.14578 2.76511Z" fill="#646A73"/>
</svg>
