<svg width="16" height="16" viewBox="0 0 16 16" fill="none" xmlns="http://www.w3.org/2000/svg">
<path fill-rule="evenodd" clip-rule="evenodd" d="M2.66666 1.66667C2.66666 1.29848 2.96513 1 3.33332 1H9.86192C9.95032 1 10.0351 1.03512 10.0976 1.09763L13.2357 4.2357C13.2982 4.29821 13.3333 4.383 13.3333 4.4714V14.3333C13.3333 14.7015 13.0348 15 12.6667 15H3.33332C2.96513 15 2.66666 14.7015 2.66666 14.3333V1.66667Z" fill="#14C0FF"/>
<path d="M10 1.03003C10.036 1.04641 10.0691 1.06922 10.0976 1.09772L13.2357 4.23579C13.2642 4.2643 13.287 4.29743 13.3034 4.33342H10.6667C10.2985 4.33342 10 4.03495 10 3.66676V1.03003Z" fill="#11A3D9"/>
<path d="M5.66666 8C6.21894 8 6.66666 7.55228 6.66666 7C6.66666 6.44772 6.21894 6 5.66666 6C5.11437 6 4.66666 6.44772 4.66666 7C4.66666 7.55228 5.11437 8 5.66666 8Z" fill="white"/>
<path d="M11.1392 7.46583C11.2108 7.39418 11.3333 7.44493 11.3333 7.54625V12.0322C11.3333 12.095 11.2824 12.146 11.2196 12.146H6.73361L6.72926 12.1459H4.78062C4.67929 12.1459 4.62855 12.0234 4.7002 11.9517L7.18293 9.469C7.22735 9.42458 7.29936 9.42458 7.34377 9.469L8.23989 10.3651L11.1392 7.46583Z" fill="white"/>
</svg>
