<svg width="17" height="16" viewBox="0 0 17 16" xmlns="http://www.w3.org/2000/svg">
<path fill-rule="evenodd" clip-rule="evenodd" d="M2.35493 1.6883C2.58222 1.46101 2.8905 1.33331 3.21194 1.33331H14.1213C14.4427 1.33331 14.751 1.46101 14.9783 1.6883C15.2056 1.91559 15.3333 2.22387 15.3333 2.54531V13.4546C15.3333 13.7761 15.2056 14.0844 14.9783 14.3117C14.751 14.539 14.4427 14.6666 14.1213 14.6666H3.21194C2.54261 14.6666 1.99994 14.124 1.99994 13.4546V2.54531C1.99994 2.22387 2.12763 1.91559 2.35493 1.6883ZM3.33327 6.66665V9.33331H5.99994V6.66665H3.33327ZM3.33327 10.6666V13.3333H5.99994V10.6666H3.33327ZM7.33327 13.3333H9.99994V10.6666H7.33327V13.3333ZM11.3333 13.3333H13.9999V10.6666H11.3333V13.3333ZM13.9999 9.33331V6.66665H11.3333V9.33331H13.9999ZM9.99994 6.66665H7.33327V9.33331H9.99994V6.66665ZM13.9999 2.66665H3.33327V5.33331H13.9999V2.66665Z"/>
</svg>
