<svg width="16" height="16" viewBox="0 0 16 16" xmlns="http://www.w3.org/2000/svg">
<path d="M3.64022 7.5556C4.16283 6.83993 4.62541 5.57259 5.08687 3.73093C5.35032 2.6795 5.67072 2.22226 5.94868 2.22226C6.19414 2.22226 6.39312 2.02328 6.39312 1.77782C6.39312 1.53236 6.19414 1.33337 5.94868 1.33337C5.11915 1.33337 4.5776 2.10619 4.22463 3.51488C3.82889 5.09429 3.42651 6.20034 3.07384 6.81136C2.92269 6.71956 2.74527 6.66671 2.55551 6.66671H1.88884C1.33655 6.66671 0.88884 7.11442 0.88884 7.66671V8.33337C0.88884 8.88566 1.33655 9.33337 1.88884 9.33337H2.55551C2.72066 9.33337 2.87646 9.29334 3.01373 9.22244C3.33856 9.88614 3.69874 10.9577 4.05281 12.4189C4.40497 13.8723 4.94329 14.6667 5.77769 14.6667C6.02314 14.6667 6.22213 14.4677 6.22213 14.2223C6.22213 13.9768 6.02314 13.7778 5.77769 13.7778C5.5046 13.7778 5.18096 13.3002 4.9167 12.2096C4.49157 10.4551 4.06637 9.20697 3.59353 8.44449H6.4666C6.57706 8.44449 6.6666 8.35494 6.6666 8.24449V7.7556C6.6666 7.64514 6.57706 7.5556 6.4666 7.5556H3.64022Z"/>
<path d="M7.99997 2.11115C7.99997 1.92706 8.14921 1.77782 8.3333 1.77782H14.7777C14.9618 1.77782 15.1111 1.92706 15.1111 2.11115V3.22226C15.1111 3.40636 14.9618 3.5556 14.7777 3.5556H8.3333C8.14921 3.5556 7.99997 3.40636 7.99997 3.22226V2.11115Z"/>
<path d="M8.3333 7.11115C8.14921 7.11115 7.99997 7.26039 7.99997 7.44449V8.5556C7.99997 8.73969 8.14921 8.88893 8.3333 8.88893H14.7777C14.9618 8.88893 15.1111 8.73969 15.1111 8.5556V7.44449C15.1111 7.26039 14.9618 7.11115 14.7777 7.11115H8.3333Z"/>
<path d="M7.99997 12.7778C7.99997 12.5937 8.14921 12.4445 8.3333 12.4445H14.7777C14.9618 12.4445 15.1111 12.5937 15.1111 12.7778V13.8889C15.1111 14.073 14.9618 14.2223 14.7777 14.2223H8.3333C8.14921 14.2223 7.99997 14.073 7.99997 13.8889V12.7778Z"/>
</svg>
