<svg width="17" height="16" viewBox="0 0 17 16" xmlns="http://www.w3.org/2000/svg">
<path d="M8.66663 1C12.5326 1 15.6666 4.13401 15.6666 8C15.6666 11.866 12.5326 15 8.66663 15H2.33329C1.9651 15 1.66663 14.7015 1.66663 14.3333V8C1.66663 4.13401 4.80063 1 8.66663 1ZM2.99996 13.6667H8.66663C11.7962 13.6667 14.3333 11.1296 14.3333 7.99998C14.3333 4.87037 11.7962 2.33332 8.66663 2.33332C5.53701 2.33332 2.99996 4.87037 2.99996 7.99998V13.6667Z" fill="white"/>
<path d="M8.33329 5C8.1492 5 7.99996 5.14924 7.99996 5.33333V7.33333H5.99996C5.81586 7.33333 5.66663 7.48257 5.66663 7.66667V8.33333C5.66663 8.51743 5.81586 8.66667 5.99996 8.66667H7.99996V10.6667C7.99996 10.8508 8.1492 11 8.33329 11H8.99996C9.18405 11 9.33329 10.8508 9.33329 10.6667V8.66667H11.3333C11.5174 8.66667 11.6666 8.51743 11.6666 8.33333V7.66667C11.6666 7.48257 11.5174 7.33333 11.3333 7.33333H9.33329V5.33333C9.33329 5.14924 9.18405 5 8.99996 5H8.33329Z"/>
</svg>
