<?xml version="1.0" standalone="no"?><!DOCTYPE svg PUBLIC "-//W3C//DTD SVG 1.1//EN" "http://www.w3.org/Graphics/SVG/1.1/DTD/svg11.dtd"><svg t="1746770210598" class="icon" viewBox="0 0 1092 1024" version="1.1" xmlns="http://www.w3.org/2000/svg" p-id="11567" xmlns:xlink="http://www.w3.org/1999/xlink" width="273" height="256"><path d="M912.742481 930.912187H177.099287c-27.246044 0-45.407236 18.161191-45.407235 45.407236s18.161191 45.407236 45.407235 45.407235h735.643194c27.246044 0 45.407236-18.161191 45.407236-45.407235s-22.699361-45.407236-45.407236-45.407236zM45.407236 458.644582C18.161191 458.644582 0 476.805774 0 504.051818v181.645971c0 27.246044 18.161191 45.407236 45.407236 45.407236s45.41575-18.161191 45.41575-45.407236V504.051818c0-27.246044-18.169706-45.407236-45.41575-45.407236z m999.027297 0c-27.246044 0-45.41575 18.161191-45.41575 45.407236v181.645971c0 27.246044 18.169706 45.407236 45.41575 45.407236 27.246044 0 45.407236-18.161191 45.407236-45.407236V504.051818c0-27.246044-18.161191-45.407236-45.407236-45.407236zM681.151105 295.168317H590.32812v-77.199963c40.869066-18.161191 68.115111-59.030258 68.11511-104.437493C658.44323 49.953919 608.497826 0 544.920884 0c-63.576941 0-113.522346 54.492088-113.522346 113.530861 0 45.407236 27.246044 86.276302 68.115111 104.437493V295.168317H408.690663c-163.476265 0-295.168317 131.692052-295.168317 295.168317 0 163.476265 131.692052 295.159803 295.168317 295.159803h272.460442c163.476265 0 295.168317-131.683537 295.168318-295.159803C976.319423 426.860369 844.627371 295.168317 681.151105 295.168317zM385.982788 681.151105c-49.945405 0-90.814471-40.869066-90.814471-90.814471 0-49.953919 40.869066-90.822986 90.814471-90.822985C435.936707 499.513649 476.805774 540.382715 476.805774 590.336634c0 54.492088-40.869066 90.814471-90.822986 90.814471z m317.876192 0C653.905061 681.151105 613.035995 640.282039 613.035995 590.336634 613.035995 540.382715 653.905061 499.513649 703.85898 499.513649c49.945405 0 90.814471 40.869066 90.814472 90.822985 0 54.492088-40.869066 90.814471-90.814472 90.814471z" fill="#000000" p-id="11568"></path></svg>