<svg width="16" height="16" viewBox="0 0 16 16" fill="none" xmlns="http://www.w3.org/2000/svg">
<path d="M3.11117 3.11117V12.8889H5.33339V14.2223H2.66672C2.21895 14.2223 1.77783 13.8036 1.77783 13.3334V2.66672C1.77783 2.19651 2.21895 1.77783 2.66672 1.77783H13.3334C13.7812 1.77783 14.2223 2.19651 14.2223 2.66672V13.3334C14.2223 13.8036 13.7812 14.2223 13.3334 14.2223H10.6667V12.8889H12.8889V3.11117H3.11117Z" fill="#1F2329"/>
<path d="M7.33339 13.7778C7.33339 14.0233 7.53237 14.2223 7.77783 14.2223H8.22228C8.46774 14.2223 8.66672 14.0233 8.66672 13.7778V7.14731L10.5237 9.00427C10.6973 9.17784 10.9787 9.17784 11.1522 9.00427L11.4665 8.69001C11.6401 8.51644 11.6401 8.23503 11.4665 8.06147L8.3238 4.91877C8.28396 4.87893 8.23844 4.84823 8.18984 4.82668C8.02382 4.74494 7.81738 4.77314 7.67924 4.91128L4.53655 8.05397C4.36298 8.22754 4.36298 8.50895 4.53655 8.68251L4.85082 8.99678C5.02438 9.17035 5.30579 9.17035 5.47936 8.99678L7.33339 7.14275V13.7778Z" fill="#1F2329"/>
</svg>
