<svg width="20" height="20" viewBox="0 0 20 20" fill="" xmlns="http://www.w3.org/2000/svg">
<path d="M7.15199 11.5968C7.31471 11.4341 7.57853 11.4341 7.74125 11.5968L8.33051 12.1861C8.49323 12.3488 8.49323 12.6126 8.33051 12.7754L4.99606 16.1087H7.36641C7.59652 16.1087 7.78307 16.2952 7.78307 16.5254V17.3587C7.78307 17.5888 7.59652 17.7754 7.36641 17.7754H3.05575C2.82563 17.7754 2.61729 17.6821 2.46649 17.5313C2.31569 17.3805 2.22241 17.1721 2.22241 16.942V12.6422C2.22241 12.4121 2.40896 12.2255 2.63908 12.2255H3.47241C3.70253 12.2255 3.88908 12.4121 3.88908 12.6422V14.8586L7.15199 11.5968ZM16.9369 2.22224C17.167 2.22224 17.3753 2.31552 17.5261 2.46632C17.6769 2.61713 17.7702 2.82546 17.7702 3.05558V7.35539C17.7702 7.5855 17.5837 7.77205 17.3535 7.77205H16.5202C16.2901 7.77205 16.1035 7.5855 16.1035 7.35539V5.13895L12.8406 8.40076C12.6779 8.56347 12.4141 8.56347 12.2514 8.40076L11.6621 7.8115C11.4994 7.64878 11.4994 7.38496 11.6621 7.22224L14.9966 3.88891H12.6262C12.3961 3.88891 12.2095 3.70236 12.2095 3.47224V2.63891C12.2095 2.40879 12.3961 2.22224 12.6262 2.22224H16.9369Z" fill=""/>
</svg>
