<svg width="16" height="16" viewBox="0 0 16 16" fill="none" xmlns="http://www.w3.org/2000/svg">
<path d="M5.35399 11.2488H7.62467L14.3787 4.4946C14.6108 4.26253 14.6113 3.88643 14.3798 3.65375L12.3342 1.59735C12.1017 1.36485 11.7247 1.36485 11.4922 1.59735L11.0723 2.01722L11.074 2.01887L4.75864 8.3828V10.6535C4.75864 10.9823 5.02519 11.2488 5.35399 11.2488ZM11.8943 2.84351L13.1 4.05552L12.0797 5.07678L10.8803 3.87736L11.8943 2.84351ZM11.2382 5.91913L7.1225 10.0388H7.12068L5.9687 8.88498L10.0465 4.72746L11.2382 5.91913Z" fill="#646A73"/>
<path d="M8.76313 2.316H2.44339C2.07805 2.316 1.78189 2.61216 1.78189 2.9775V13.5615C1.78189 13.9268 2.07805 14.223 2.44339 14.223H13.0274C13.3927 14.223 13.6889 13.9268 13.6889 13.5615V7.1614L12.3576 8.50072V12.8982H3.11313V3.6408H7.46239L8.76313 2.316Z" fill="#646A73"/>
</svg>
