<svg width="18" height="18" viewBox="0 0 18 18" fill="none" xmlns="http://www.w3.org/2000/svg">
<path d="M15.75 14.25V15.75H2.25V14.25H15.75ZM15.75 3.75H2.25V15.75L2.09692 15.7419C1.39076 15.6704 0.82965 15.1092 0.758057 14.4031L0.75 14.25V3.75C0.75 2.92157 1.42157 2.25 2.25 2.25H15.75C16.5784 2.25 17.25 2.92157 17.25 3.75V14.25C17.25 15.0784 16.5784 15.75 15.75 15.75V3.75Z" fill="#1F2329"/>
<path d="M5.625 5.25H3.375C3.27554 5.25 3.18016 5.28951 3.10983 5.35984C3.03951 5.43016 3 5.52554 3 5.625V6.375C3 6.47446 3.03951 6.56984 3.10983 6.64017C3.18016 6.71049 3.27554 6.75 3.375 6.75H5.625C5.67425 6.75 5.72301 6.7403 5.76851 6.72145C5.814 6.70261 5.85534 6.67499 5.89017 6.64017C5.92499 6.60534 5.95261 6.564 5.97146 6.51851C5.9903 6.47301 6 6.42425 6 6.375V5.625C6 5.57575 5.9903 5.52699 5.97146 5.48149C5.95261 5.436 5.92499 5.39466 5.89017 5.35984C5.85534 5.32501 5.814 5.29739 5.76851 5.27855C5.72301 5.2597 5.67425 5.25 5.625 5.25Z" fill="#1F2329"/>
<path d="M5.625 7.5H3.375C3.27554 7.5 3.18016 7.53951 3.10983 7.60984C3.03951 7.68016 3 7.77554 3 7.875V8.625C3 8.72446 3.03951 8.81984 3.10983 8.89017C3.18016 8.96049 3.27554 9 3.375 9H5.625C5.67425 9 5.72301 8.9903 5.76851 8.97145C5.814 8.95261 5.85534 8.92499 5.89017 8.89017C5.92499 8.85534 5.95261 8.814 5.97146 8.76851C5.9903 8.72301 6 8.67425 6 8.625V7.875C6 7.82575 5.9903 7.77699 5.97146 7.73149C5.95261 7.686 5.92499 7.64466 5.89017 7.60984C5.85534 7.57501 5.814 7.54739 5.76851 7.52855C5.72301 7.5097 5.67425 7.5 5.625 7.5Z" fill="#1F2329"/>
<path d="M6.75 3.75H8.25V14.25H6.75V3.75Z" fill="#1F2329"/>
</svg>
