<svg width="16" height="16" viewBox="0 0 16 16" fill="none" xmlns="http://www.w3.org/2000/svg">
<path d="M2.66667 1.99996V14H8V12H9.33334V14.6666C9.33334 15.0348 9.03486 15.3333 8.66667 15.3333H2C1.63181 15.3333 1.33334 15.0348 1.33334 14.6666V1.33329C1.33334 0.965103 1.63181 0.666626 2 0.666626H8.66667C9.03486 0.666626 9.33334 0.965103 9.33334 1.33329V3.99996H8V1.99996H2.66667Z" fill="#646A73"/>
<path d="M12.2482 8.69455L7 8.69455C6.95623 8.69455 6.91288 8.68593 6.87244 8.66918C6.832 8.65243 6.79525 8.62788 6.7643 8.59692C6.73335 8.56597 6.7088 8.52922 6.69204 8.48878C6.67529 8.44834 6.66667 8.40499 6.66667 8.36122L6.66667 7.69455C6.66667 7.65078 6.67529 7.60744 6.69204 7.56699C6.7088 7.52655 6.73335 7.48981 6.7643 7.45885C6.79525 7.4279 6.832 7.40335 6.87244 7.38659C6.91288 7.36984 6.95623 7.36122 7 7.36122L12.2569 7.36122L10.6026 5.70689C10.5401 5.64438 10.505 5.55961 10.505 5.47122C10.505 5.38283 10.5401 5.29806 10.6026 5.23556L11.0742 4.76422C11.1367 4.70173 11.2215 4.66663 11.3099 4.66663C11.3983 4.66663 11.4831 4.70173 11.5456 4.76422L14.5689 7.78756C14.5999 7.81851 14.6245 7.85528 14.6413 7.89574C14.658 7.93621 14.6667 7.97958 14.6667 8.02339C14.6667 8.06719 14.658 8.11057 14.6413 8.15103C14.6245 8.1915 14.5999 8.22826 14.5689 8.25922L11.5456 11.2829C11.4831 11.3454 11.3983 11.3805 11.3099 11.3805C11.2215 11.3805 11.1367 11.3454 11.0742 11.2829L10.6026 10.8116C10.5401 10.749 10.505 10.6643 10.505 10.5759C10.505 10.4875 10.5401 10.4027 10.6026 10.3402L12.2482 8.69455Z" fill="#646A73"/>
</svg>
