<svg width="20" height="20" viewBox="0 0 20 20" fill="none" xmlns="http://www.w3.org/2000/svg">
<path d="M2.08329 3.33331H16.25C16.4801 3.33331 16.6666 3.51986 16.6666 3.74998V4.58331C16.6666 4.81343 16.4801 4.99998 16.25 4.99998H2.08329C1.85317 4.99998 1.66663 4.81343 1.66663 4.58331V3.74998C1.66663 3.51986 1.85317 3.33331 2.08329 3.33331ZM2.08329 15H16.25C16.4801 15 16.6666 15.1865 16.6666 15.4166V16.25C16.6666 16.4801 16.4801 16.6666 16.25 16.6666H2.08329C1.85317 16.6666 1.66663 16.4801 1.66663 16.25V15.4166C1.66663 15.1865 1.85317 15 2.08329 15ZM2.08329 9.16665H11.25C11.4801 9.16665 11.6666 9.35319 11.6666 9.58331V10.4166C11.6666 10.6468 11.4801 10.8333 11.25 10.8333H2.08329C1.85317 10.8333 1.66663 10.6468 1.66663 10.4166V9.58331C1.66663 9.35319 1.85317 9.16665 2.08329 9.16665Z" fill="#1F2329"/>
<path d="M17.8422 10.256C17.8006 10.3251 17.7427 10.383 17.6736 10.4246L14.1369 12.5566C13.9024 12.6979 13.5977 12.6224 13.4564 12.3879C13.4098 12.3107 13.3852 12.2222 13.3852 12.132L13.3851 7.86795C13.3851 7.59416 13.6071 7.37221 13.8808 7.3722C13.971 7.3722 14.0595 7.39681 14.1368 7.44338L17.6736 9.57549C17.9081 9.71684 17.9836 10.0215 17.8422 10.256Z" fill="#1F2329"/>
</svg>
