<svg width="13" height="12" viewBox="0 0 13 12" fill="none" xmlns="http://www.w3.org/2000/svg">
<path d="M6.66663 0.75C9.56612 0.75 11.9166 3.10051 11.9166 6C11.9166 8.8995 9.56612 11.25 6.66663 11.25H1.91663C1.64048 11.25 1.41663 11.0261 1.41663 10.75V6C1.41663 3.10051 3.76713 0.75 6.66663 0.75ZM2.41663 10.25H6.66663C9.01384 10.25 10.9166 8.3472 10.9166 5.99999C10.9166 3.65278 9.01384 1.74999 6.66663 1.74999C4.31942 1.74999 2.41663 3.65278 2.41663 5.99999V10.25ZM4.41663 6.75H6.91663C7.0547 6.75 7.16663 6.86193 7.16663 7V7.5C7.16663 7.63807 7.0547 7.75 6.91663 7.75H4.41663C4.27855 7.75 4.16663 7.63807 4.16663 7.5V7C4.16663 6.86193 4.27855 6.75 4.41663 6.75ZM4.41663 4.74999H8.91663C9.0547 4.74999 9.16663 4.86192 9.16663 4.99999V5.49999C9.16663 5.63806 9.0547 5.74999 8.91663 5.74999H4.41663C4.27855 5.74999 4.16663 5.63806 4.16663 5.49999V4.99999C4.16663 4.86192 4.27855 4.74999 4.41663 4.74999Z" fill="white"/>
</svg>
