<svg width="16" height="16" viewBox="0 0 16 16" fill="none" xmlns="http://www.w3.org/2000/svg">
<g clip-path="url(#clip0_1127_1532)">
<path d="M14 8.00009C14 4.68642 11.3137 2.00009 8.00001 2.00009C6.48001 2.00009 5.09234 2.56509 4.03501 3.49676L3.35734 2.32342C4.66614 1.24984 6.30722 0.664246 8.00001 0.666756C12.05 0.666756 15.3333 3.95009 15.3333 8.00009C15.3333 9.35876 14.964 10.6311 14.32 11.7221L13.5247 10.3448L13.527 10.3391L12.179 8.00009H14ZM3.09667 4.54076L4.14534 6.33509H2.23401C2.07829 6.87637 1.99952 7.43686 2.00001 8.00009C2.00001 11.3138 4.68634 14.0001 8.00001 14.0001C9.93234 14.0001 11.6513 13.0868 12.749 11.6678L13.4587 12.8971C12.116 14.3928 10.168 15.3334 8.00001 15.3334C3.95001 15.3334 0.666672 12.0501 0.666672 8.00009C0.664084 6.27817 1.26996 4.6107 2.37734 3.29209L3.09767 4.53976L3.09667 4.54076Z" fill="#646A73"/>
<path fill-rule="evenodd" clip-rule="evenodd" d="M8.13642 4.66663C7.86709 4.66663 7.62309 4.82329 7.51442 5.06663L5.13775 10.4C5.10232 10.4804 5.08327 10.5672 5.08172 10.6551C5.08017 10.743 5.09616 10.8304 5.12874 10.912C5.16132 10.9937 5.20985 11.0681 5.27149 11.1308C5.33314 11.1935 5.40665 11.2433 5.48775 11.2773C5.65213 11.3487 5.83795 11.3527 6.00526 11.2885C6.17257 11.2243 6.30799 11.097 6.38242 10.934L6.94709 9.66663H9.32642L9.89109 10.9333C9.96539 11.0963 10.1007 11.2236 10.2678 11.2879C10.435 11.3522 10.6207 11.3484 10.7851 11.2773C10.8663 11.2433 10.9399 11.1935 11.0016 11.1307C11.0633 11.068 11.1118 10.9935 11.1444 10.9118C11.177 10.83 11.193 10.7426 11.1914 10.6546C11.1898 10.5666 11.1706 10.4798 11.1351 10.3993L8.75842 5.06596C8.65042 4.82329 8.40642 4.66663 8.13642 4.66663ZM7.54109 8.33329L8.13642 6.99663L8.73242 8.33329H7.54109Z" fill="#646A73"/>
</g>
<defs>
<clipPath id="clip0_1127_1532">
<rect width="16" height="16" fill="white"/>
</clipPath>
</defs>
</svg>
