<svg width="18" height="18" viewBox="0 0 18 18" fill="none" xmlns="http://www.w3.org/2000/svg">
<path d="M6.2276 13.6116C6.57261 13.7278 6.65136 14.0653 6.40198 14.3271C6.02398 14.7099 3.73835 15.0264 3.0596 15.1258C2.92985 15.1453 2.81023 15.1843 2.68573 15.1134C2.50685 15.0137 2.47685 14.8389 2.51098 14.606C2.60285 13.976 2.89348 12.3729 3.33823 11.2067C3.37798 11.1024 3.50885 11.0859 3.61273 11.0942C3.82873 11.0942 3.94535 11.1902 4.0241 11.4107C4.32335 12.2717 4.87648 12.9249 5.67448 13.3701C5.84923 13.4661 6.03636 13.5448 6.2276 13.6116ZM15.8674 2.2348C15.9086 2.49017 15.9379 2.7418 15.9337 3.0013C15.8962 4.2913 15.6142 5.53142 15.1459 6.73442C14.586 8.17255 13.7651 9.43742 12.6165 10.4844C12.5212 10.5707 12.492 10.6614 12.5044 10.7807C12.546 11.168 12.5749 11.9304 12.6165 12.3182C12.7076 13.2204 12.3926 13.9577 11.6587 14.4812C10.8709 15.0414 10.0537 15.5608 9.24561 16.088C8.73561 16.418 8.10936 16.1169 8.05123 15.5154C7.98486 14.8232 7.93498 13.7559 7.88548 13.0637C7.86036 12.7134 7.86898 12.7134 7.53298 12.668C6.63298 12.5525 5.93248 12.1281 5.45173 11.3619C5.20273 10.9663 5.07823 10.5294 5.03698 10.0719C5.02423 9.93205 4.96648 9.89905 4.83785 9.8908C4.11223 9.85367 3.0116 9.8083 2.28598 9.75467C1.68485 9.70967 1.37773 9.07892 1.70098 8.55167C1.92523 8.18042 2.16598 7.81817 2.40223 7.45142C2.65498 7.0558 2.9036 6.6643 3.15673 6.26867C3.62098 5.54792 4.28848 5.16055 5.14273 5.1523C5.6321 5.14817 6.49648 5.2348 6.98548 5.28805C7.08111 5.2963 7.14748 5.2843 7.20936 5.21417C8.34561 3.95305 9.74698 3.1003 11.3392 2.53142C12.2354 2.21102 13.1668 1.9995 14.1135 1.90142C14.5942 1.85155 15.0754 1.83505 15.552 1.92167C15.8134 1.97117 15.8261 1.98355 15.8674 2.2348ZM14.2687 3.39317C13.4385 3.47942 12.6307 3.66317 11.844 3.94442C10.4002 4.45967 9.24036 5.20105 8.33136 6.2098C7.92036 6.67255 7.39498 6.8293 6.82236 6.77942C6.68282 6.76378 6.54344 6.74678 6.40423 6.72842C5.99035 6.67978 5.57408 6.65436 5.15735 6.6523C4.82248 6.6553 4.6166 6.7723 4.42048 7.0768L4.04548 7.66405C3.90155 7.8898 3.75743 8.11543 3.6131 8.34092C3.92585 8.35967 4.24085 8.37767 4.55885 8.3938C4.91885 8.41705 5.60885 8.50255 5.9411 8.78005C6.32998 9.10367 6.49273 9.50942 6.53061 9.93655C6.55423 10.196 6.61686 10.3978 6.72186 10.5643C6.95473 10.9355 7.25061 11.1193 7.73361 11.1816C7.79623 11.1902 7.82511 11.1939 7.86261 11.1996C8.00661 11.222 8.12136 11.2464 8.26198 11.2963C8.54061 11.3957 8.79711 11.5625 9.00298 11.8213C9.18673 12.0523 9.28236 12.665 9.33298 12.9152C9.35586 13.0273 9.42523 13.9352 9.44286 14.1699C9.89734 13.8759 10.3457 13.5724 10.7876 13.2598C11.0715 13.0573 11.1626 12.8499 11.1251 12.4775C11.1064 12.3058 11.0265 11.0672 11.0126 10.9363C10.9511 10.346 11.1555 9.7843 11.6062 9.37555C12.5479 8.51717 13.2532 7.46192 13.7482 6.1903C14.1195 5.23705 14.3415 4.30142 14.4124 3.37967C14.3662 3.38342 14.3182 3.38792 14.2687 3.39317ZM11.8125 7.12517C11.5141 7.12517 11.228 7.00665 11.017 6.79567C10.806 6.58469 10.6875 6.29854 10.6875 6.00017C10.6875 5.70181 10.806 5.41566 11.017 5.20468C11.228 4.9937 11.5141 4.87517 11.8125 4.87517C12.1109 4.87517 12.397 4.9937 12.608 5.20468C12.819 5.41566 12.9375 5.70181 12.9375 6.00017C12.9375 6.29854 12.819 6.58469 12.608 6.79567C12.397 7.00665 12.1109 7.12517 11.8125 7.12517Z" fill="currentColor"/>
</svg>
