<svg width="30" height="30" viewBox="0 0 30 30" fill="none" xmlns="http://www.w3.org/2000/svg">
<g clip-path="url(#clip0_5963_38466)">
<path d="M28.3328 13.6689H28.1019C28.2398 14.4271 28.3088 15.1961 28.3083 15.9666C28.3132 16.913 28.2005 17.8563 27.9729 18.7749H28.6236C28.9021 18.7749 29.1691 18.6643 29.3661 18.4674C29.563 18.2705 29.6736 18.0034 29.6736 17.7249V15.0099C29.6736 14.8339 29.6389 14.6595 29.5716 14.4968C29.5042 14.3341 29.4054 14.1863 29.2809 14.0617C29.1564 13.9372 29.0086 13.8384 28.8459 13.771C28.6832 13.7036 28.5088 13.669 28.3328 13.6689Z" class="icon-primary"/>
<path d="M1.69164 15.9666C1.69114 15.1961 1.76022 14.4271 1.89804 13.6689H1.66727C1.31164 13.669 0.970593 13.8102 0.719137 14.0617C0.467681 14.3132 0.326416 14.6542 0.326416 15.0099V17.7249C0.326416 18.0033 0.437041 18.2704 0.633954 18.4673C0.830867 18.6642 1.09794 18.7749 1.37642 18.7749H2.02712C1.79945 17.8563 1.68676 16.913 1.69164 15.9666Z" fill="var(--ed-color-primary)"/>
<path d="M15 3.79492C8.11089 3.79492 2.52625 9.07725 2.52625 15.9664C2.52625 22.8555 8.11097 26.2049 15 26.2049C21.8891 26.2049 27.4737 22.8557 27.4737 15.9667C27.4737 9.07762 21.8891 3.79492 15 3.79492ZM18.0265 21.1252H11.9735C11.1168 21.1264 10.2697 20.9439 9.48954 20.5899C8.92592 20.334 7.28177 20.8715 6.82704 20.463C6.27602 19.968 6.94405 18.4942 6.6058 17.827C6.1792 16.9852 5.95758 16.0545 5.959 15.1108C5.959 13.5157 6.59265 11.986 7.72055 10.8581C8.84845 9.73017 10.3782 9.09652 11.9733 9.09652H18.0263C19.6214 9.09652 21.1512 9.73017 22.2791 10.8581C23.407 11.986 24.0407 13.5157 24.0407 15.1108C24.0407 15.9007 23.8852 16.6828 23.583 17.4125C23.2808 18.1422 22.8378 18.8052 22.2793 19.3638C21.7208 19.9223 21.0578 20.3653 20.3282 20.6676C19.5985 20.9699 18.8164 21.1255 18.0266 21.1255L18.0265 21.1252Z" class="icon-primary"/>
<path d="M15 3.79492C8.11089 3.79492 2.52625 9.07725 2.52625 15.9664C2.52625 22.8555 8.11097 26.2049 15 26.2049C21.8891 26.2049 27.4737 22.8557 27.4737 15.9667C27.4737 9.07762 21.8891 3.79492 15 3.79492ZM18.0265 21.1252H11.9735C11.1168 21.1264 10.2697 20.9439 9.48954 20.5899C8.92592 20.334 7.28177 20.8715 6.82704 20.463C6.27602 19.968 6.94405 18.4942 6.6058 17.827C6.1792 16.9852 5.95758 16.0545 5.959 15.1108C5.959 13.5157 6.59265 11.986 7.72055 10.8581C8.84845 9.73017 10.3782 9.09652 11.9733 9.09652H18.0263C19.6214 9.09652 21.1512 9.73017 22.2791 10.8581C23.407 11.986 24.0407 13.5157 24.0407 15.1108C24.0407 15.9007 23.8852 16.6828 23.583 17.4125C23.2808 18.1422 22.8378 18.8052 22.2793 19.3638C21.7208 19.9223 21.0578 20.3653 20.3282 20.6676C19.5985 20.9699 18.8164 21.1255 18.0266 21.1255L18.0265 21.1252Z" class="icon-primary"/>
<path d="M10.5456 14.915H8.76648V18.7946H10.5456V14.915Z" class="icon-primary"/>
<path d="M14.1198 13.1934H12.3407V18.7947H14.1198V13.1934Z" class="icon-primary"/>
<path d="M17.6939 15.438H15.9148V18.7945H17.6939V15.438Z" class="icon-primary"/>
<path d="M21.2334 12.4521H19.4543V18.7946H21.2334V12.4521Z" class="icon-primary"/>
</g>
<defs>
<linearGradient id="paint0_linear_5963_38466" x1="6.6502" y1="4.4409" x2="25.0992" y2="29.249" gradientUnits="userSpaceOnUse">
<stop stop-color="#B2F288"/>
<stop offset="0.181" stop-color="#80D79C"/>
<stop offset="0.371" stop-color="#52BEAD"/>
<stop offset="0.554" stop-color="#2FAABB"/>
<stop offset="0.724" stop-color="#159CC5"/>
<stop offset="0.878" stop-color="#0594CB"/>
<stop offset="1" stop-color="#0091CD"/>
</linearGradient>
<linearGradient id="paint1_linear_5963_38466" x1="6.6502" y1="4.4409" x2="25.0992" y2="29.249" gradientUnits="userSpaceOnUse">
<stop stop-color="#B2F288"/>
<stop offset="0.181" stop-color="#80D79C"/>
<stop offset="0.371" stop-color="#52BEAD"/>
<stop offset="0.554" stop-color="#2FAABB"/>
<stop offset="0.724" stop-color="#159CC5"/>
<stop offset="0.878" stop-color="#0594CB"/>
<stop offset="1" stop-color="#0091CD"/>
</linearGradient>
<clipPath id="clip0_5963_38466">
<rect width="30" height="30" fill="white"/>
</clipPath>
</defs>
</svg>
