<?xml version="1.0" standalone="no"?><!DOCTYPE svg PUBLIC "-//W3C//DTD SVG 1.1//EN" "http://www.w3.org/Graphics/SVG/1.1/DTD/svg11.dtd"><svg class="icon" width="200px" height="200.00px" viewBox="0 0 1024 1024" version="1.1" xmlns="http://www.w3.org/2000/svg"><path d="M778.24 100.16c8.576 0 17.152 0.448 25.792 1.216 27.008 2.56 47.68 25.216 47.552 52.288v589.568c0 28.288-22.4 51.392-50.56 52.416-50.88 1.92-94.08 8.704-129.344 20.48-46.336 15.488-91.392 43.52-135.04 84.16v-659.2a275.52 275.52 0 0 1 135.04-119.232 277.056 277.056 0 0 1 106.56-21.696z m125.952 655.488V217.6c13.888 0 27.328 5.504 37.12 15.36 9.792 9.92 15.36 23.232 15.36 37.12v533.76c0 41.728-26.112 109.184-104.96 102.4-55.616-4.736-59.2-6.72-106.048-5.888-45.952 0.768-110.208-0.832-167.68 12.672 32.192-26.88 79.296-45.888 110.464-52.48 31.104-6.72 69.952-9.6 115.648-11.328 57.984-2.048 100.096-45.632 100.096-93.632zM242.624 100.16c36.288 0 71.808 7.296 106.624 21.76a275.008 275.008 0 0 1 134.912 119.104V900.48c-43.52-40.704-88.64-68.8-134.912-84.224-35.328-11.648-78.4-18.56-129.408-20.352a52.352 52.352 0 0 1-50.496-52.48V153.6c0-27.072 20.608-49.664 47.616-52.16 8.512-0.896 17.088-1.28 25.664-1.28zM116.672 755.648c0 43.264 32 91.136 101.12 93.632 45.824 1.728 74.432 6.72 114.752 11.328 40.32 4.48 79.04 25.664 111.232 52.48-57.472-13.44-116.928-12.672-168.512-12.672-40.64 0-47.744 5.888-106.112 5.888-68.864 0-105.088-62.272-105.088-102.4V270.08a52.48 52.48 0 0 1 52.48-52.48v538.112h0.128z" /></svg>