<?xml version="1.0" standalone="no"?><!DOCTYPE svg PUBLIC "-//W3C//DTD SVG 1.1//EN" "http://www.w3.org/Graphics/SVG/1.1/DTD/svg11.dtd"><svg class="icon" width="200px" height="200.00px" viewBox="0 0 1024 1024" version="1.1" xmlns="http://www.w3.org/2000/svg"><path d="M526.3872 0a654.8992 654.8992 0 0 1-438.9376 146.0224v379.1872c0 181.0432 233.1648 498.7392 439.808 498.7392 206.6944 0 438.9888-318.5664 438.9888-499.6096V146.0224A654.1312 654.1312 0 0 1 526.3872 0zM448.6656 318.5664a123.97568 123.97568 0 0 1 85.4016-33.3312v-0.8704c1.4336-0.0512 2.8672-0.0512 4.3008 0 65.0752 0.9728 117.0432 54.4768 116.1216 119.6032 0.8192 32.1024-11.8784 63.1296-35.0208 85.4016-48.4864 43.8784-122.3168 43.8784-170.8032 0-2.7648-2.5088-5.4272-5.1712-7.936-7.936-42.752-47.1552-39.2192-120.064 7.936-162.8672z m280.1664 421.0688h-403.968c-0.1536-38.6048 2.9696-77.2096 9.3696-115.3024 8.3456-44.3392 46.2848-76.9536 91.392-78.592a1450.496 1450.496 0 0 1 206.6944 0c52.3776 5.6832 93.0816 48.1792 96.512 100.7616v93.1328z" /></svg>