<?xml version="1.0" standalone="no"?><!DOCTYPE svg PUBLIC "-//W3C//DTD SVG 1.1//EN" "http://www.w3.org/Graphics/SVG/1.1/DTD/svg11.dtd"><svg class="icon" width="200px" height="200.00px" viewBox="0 0 1024 1024" version="1.1" xmlns="http://www.w3.org/2000/svg"><path d="M905.846154 423.778462v176.836923a29.538462 29.538462 0 0 1-59.076923 0v-147.889231l-334.769231 164.233846L89.521231 409.993846a36.785231 36.785231 0 0 1-6.695385-42.712615c3.780923-7.404308 9.984-13.390769 17.624616-17.053539l394.259692-188.770461a40.132923 40.132923 0 0 1 34.579692 0l394.24 188.770461c19.298462 9.235692 27.175385 31.842462 17.644308 50.491077-1.634462 3.209846-3.741538 6.144-6.183385 8.743385L905.846154 423.778462z m-118.153846 101.80923V748.307692h-0.787693c-10.830769 66.087385-129.772308 118.153846-274.904615 118.153846-145.132308 0-264.073846-52.066462-274.904615-118.153846H236.307692V525.784615l267.027693 130.796308a19.692308 19.692308 0 0 0 17.32923 0L787.692308 525.587692z" fill="" /></svg>