<svg width="17" height="16" viewBox="0 0 17 16" fill="none" xmlns="http://www.w3.org/2000/svg">
<path d="M4.3335 3.33334C4.88578 3.33334 5.3335 3.78106 5.3335 4.33334C5.3335 4.88563 4.88578 5.33334 4.3335 5.33334C3.78121 5.33334 3.3335 4.88563 3.3335 4.33334C3.3335 3.78106 3.78121 3.33334 4.3335 3.33334Z" fill="#1F2329"/>
<path d="M7.66683 3.33334C8.21911 3.33334 8.66683 3.78106 8.66683 4.33334C8.66683 4.88563 8.21911 5.33334 7.66683 5.33334C7.11454 5.33334 6.66683 4.88563 6.66683 4.33334C6.66683 3.78106 7.11454 3.33334 7.66683 3.33334Z" fill="#1F2329"/>
<path fill-rule="evenodd" clip-rule="evenodd" d="M15.3335 1.33334C15.7017 1.33334 16.0002 1.63182 16.0002 2.00001V14C16.0002 14.3682 15.7017 14.6667 15.3335 14.6667H2.00016C1.63197 14.6667 1.3335 14.3682 1.3335 14V2.00001C1.3335 1.63182 1.63197 1.33334 2.00016 1.33334H15.3335ZM2.66683 7.33334V13.3333H14.6668V7.33334H2.66683ZM2.66683 6.00001H14.6668V2.66668H2.66683V6.00001Z" fill="#1F2329"/>
</svg>
