<svg width="16" height="16" viewBox="0 0 16 16" fill="none" xmlns="http://www.w3.org/2000/svg">
<path d="M3.33314 11.3781C3.33314 9.14428 5.20842 7.33374 7.3786 7.33374L8.62708 7.33337C10.7976 7.33337 12.6667 9.14428 12.6667 11.3777V13.6665C12.6667 13.8433 12.5965 14.013 12.4714 14.138C12.3463 14.2631 12.1767 14.3334 11.9998 14.3334H4.00005C3.82318 14.3334 3.65355 14.2631 3.52848 14.138C3.40341 14.013 3.33314 13.8433 3.33314 13.6665V11.3781ZM7.3786 8.66707C5.9307 8.66707 4.66648 9.89468 4.66648 11.3781V13H11.3334V11.3777C11.3334 9.89219 10.0725 8.66693 8.62708 8.66671L7.3786 8.66707Z" fill="#1F2329"/>
<path d="M9.64993 5.31683C9.21644 5.75033 8.62994 5.99565 8.01737 6.00022L7.99993 6.00028L7.98386 6.00023C7.37079 5.99601 6.78375 5.75065 6.34993 5.31683C5.91232 4.87922 5.66648 4.2857 5.66648 3.66683C5.66648 3.04796 5.91232 2.45443 6.34993 2.01683C6.78754 1.57922 7.38106 1.33337 7.99993 1.33337C8.6188 1.33337 9.21232 1.57922 9.64993 2.01683C10.0875 2.45443 10.3334 3.04796 10.3334 3.66683C10.3334 4.2857 10.0875 4.87922 9.64993 5.31683ZM7.99993 2.66671C7.73468 2.66671 7.4803 2.77208 7.29274 2.95964C7.10518 3.1472 6.99981 3.40158 6.99981 3.66683C6.99981 3.93208 7.10518 4.18646 7.29274 4.37402C7.4803 4.56158 7.73468 4.66695 7.99993 4.66695C8.26518 4.66695 8.51956 4.56158 8.70712 4.37402C8.89468 4.18646 9.00005 3.93208 9.00005 3.66683C9.00005 3.40158 8.89468 3.14719 8.70712 2.95964C8.51956 2.77208 8.26518 2.66671 7.99993 2.66671Z" fill="#1F2329"/>
<path d="M4.99981 5.83337C4.99981 6.6618 4.32824 7.33337 3.49981 7.33337C2.67138 7.33337 1.99981 6.6618 1.99981 5.83337C1.99981 5.00495 2.67138 4.33337 3.49981 4.33337C4.32824 4.33337 4.99981 5.00495 4.99981 5.83337ZM3.99981 5.83337C3.99981 5.55723 3.77595 5.33337 3.49981 5.33337C3.22367 5.33337 2.99981 5.55723 2.99981 5.83337C2.99981 6.10952 3.22367 6.33337 3.49981 6.33337C3.77595 6.33337 3.99981 6.10952 3.99981 5.83337Z" fill="#1F2329"/>
<path d="M3.36279 8.00004C1.73515 8.00004 1 9.35822 1 11.0335V12.8335C1 13.1099 1.224 13.3335 1.5 13.3335H2.33333V11.3335C2.33333 8.9142 3.47256 8.36786 4.15038 8.0428L4.21661 8.01095C4.1337 8.00368 4.05006 8.00004 3.9657 8.00004H3.36279Z" fill="#1F2329"/>
<path d="M12.6359 8.00004C14.2635 8.00004 14.9986 9.35822 14.9986 11.0335V12.8335C14.9986 13.1099 14.7746 13.3335 14.4986 13.3335H13.6653V11.3335C13.6653 8.9142 12.5261 8.36786 11.8483 8.0428L11.782 8.01095C11.8649 8.00368 11.9486 8.00004 12.0329 8.00004H12.6359Z" fill="#1F2329"/>
<path d="M12.4998 7.33337C13.3282 7.33337 13.9998 6.6618 13.9998 5.83337C13.9998 5.00495 13.3282 4.33337 12.4998 4.33337C11.6714 4.33337 10.9998 5.00495 10.9998 5.83337C10.9998 6.6618 11.6714 7.33337 12.4998 7.33337ZM12.4998 6.33337C12.2237 6.33337 11.9998 6.10952 11.9998 5.83337C11.9998 5.55723 12.2237 5.33337 12.4998 5.33337C12.776 5.33337 12.9998 5.55723 12.9998 5.83337C12.9998 6.10952 12.776 6.33337 12.4998 6.33337Z" fill="#1F2329"/>
</svg>
