<svg width="16" height="16" viewBox="0 0 16 16" fill="none" xmlns="http://www.w3.org/2000/svg">
<path d="M7.98994 12.3335C10.1486 12.3335 12.1472 10.9604 14.0001 7.9915C12.1949 5.03321 10.2008 3.66683 7.98994 3.66683C5.77984 3.66683 3.7929 5.03259 2.00009 7.99148C3.84053 10.961 5.83206 12.3335 7.98994 12.3335ZM1.00172 8.59353C0.787049 8.22812 0.785596 7.77385 0.995302 7.40557C1.00277 7.39245 1.00993 7.37994 1.01672 7.36817C2.9521 4.01172 5.27627 2.3335 7.98923 2.3335C10.7133 2.3335 13.0518 4.02544 15.0049 7.40933C15.0107 7.41947 15.0168 7.43018 15.0232 7.44138C15.2208 7.78738 15.2193 8.2145 15.0172 8.55787C13.0127 11.9638 10.67 13.6668 7.98923 13.6668C5.31784 13.6668 2.98867 11.9757 1.00172 8.59353ZM8.00009 10.6668C6.52733 10.6668 5.33342 9.47292 5.33342 8.00016C5.33342 6.5274 6.52733 5.3335 8.00009 5.3335C9.47285 5.3335 10.6668 6.5274 10.6668 8.00016C10.6668 9.47292 9.47285 10.6668 8.00009 10.6668ZM8.00009 9.3335C8.73647 9.3335 9.33342 8.73654 9.33342 8.00016C9.33342 7.26378 8.73647 6.66683 8.00009 6.66683C7.26371 6.66683 6.66675 7.26378 6.66675 8.00016C6.66675 8.73654 7.26371 9.3335 8.00009 9.3335Z" fill="#646A73"/>
</svg>
