<svg width="16" height="16" viewBox="0 0 16 16" fill="none" xmlns="http://www.w3.org/2000/svg">
<path d="M5.35433 11.2487H7.625L14.379 4.49447C14.6111 4.26241 14.6116 3.88631 14.3801 3.65363L12.3345 1.59723C12.102 1.36473 11.7251 1.36473 11.4926 1.59723L11.0727 2.01709L11.0743 2.01875L4.75898 8.38268V10.6534C4.75898 10.9822 5.02553 11.2487 5.35433 11.2487ZM11.8947 2.84338L13.1003 4.0554L12.0801 5.07666L10.8806 3.87724L11.8947 2.84338ZM11.2385 5.91901L7.12283 10.0386H7.12102L5.96904 8.88486L10.0468 4.72734L11.2385 5.91901Z" fill="#646A73"/>
<path d="M8.76346 2.31588H2.44373C2.07839 2.31588 1.78223 2.61204 1.78223 2.97737V13.5614C1.78223 13.9267 2.07839 14.2229 2.44373 14.2229H13.0277C13.393 14.2229 13.6892 13.9267 13.6892 13.5614V7.16128L12.3579 8.5006V12.898H3.11347V3.64068H7.46273L8.76346 2.31588Z" fill="#646A73"/>
</svg>
