<svg width="16" height="17" viewBox="0 0 16 17" fill="none" xmlns="http://www.w3.org/2000/svg">
<path d="M3.33333 5.83325V13.8333H10V5.83325H3.33333ZM11.3333 5.16659V14.574C11.3333 14.9013 11.0548 15.1666 10.7111 15.1666H2.62222C2.27858 15.1666 2 14.9013 2 14.574V5.09251C2 4.76523 2.27858 4.49992 2.62222 4.49992H10.6667C11.0349 4.49992 11.3333 4.7984 11.3333 5.16659ZM13.8047 2.02851C13.9254 2.14916 14 2.31582 14 2.49992V10.8333C14 11.0173 13.8508 11.1666 13.6667 11.1666H13C12.8159 11.1666 12.6667 11.0173 12.6667 10.8333V3.16659H6.33333C6.14924 3.16659 6 3.01735 6 2.83325V2.16659C6 1.98249 6.14924 1.83325 6.33333 1.83325H13.3333C13.5174 1.83325 13.6841 1.90787 13.8047 2.02851Z" fill="#646A73"/>
</svg>
