<svg width="20" height="20" viewBox="0 0 20 20" fill="none" xmlns="http://www.w3.org/2000/svg">
<path d="M17.4997 15.8333V17.5H2.49967V15.8333H17.4997ZM17.4997 4.16667H2.49967V17.5L2.32959 17.491C1.54496 17.4115 0.921507 16.788 0.84196 16.0034L0.833008 15.8333V4.16667C0.833008 3.24619 1.5792 2.5 2.49967 2.5H17.4997C18.4201 2.5 19.1663 3.24619 19.1663 4.16667V15.8333C19.1663 16.7538 18.4201 17.5 17.4997 17.5V4.16667Z" fill="#1F2329"/>
<path d="M6.24967 5.83333H3.74967C3.63917 5.83333 3.53319 5.87723 3.45505 5.95537C3.37691 6.03351 3.33301 6.13949 3.33301 6.25V7.08333C3.33301 7.19384 3.37691 7.29982 3.45505 7.37796C3.53319 7.4561 3.63917 7.5 3.74967 7.5H6.24967C6.30439 7.5 6.35857 7.48922 6.40913 7.46828C6.45968 7.44734 6.50561 7.41665 6.5443 7.37796C6.58299 7.33927 6.61369 7.29334 6.63462 7.24278C6.65556 7.19223 6.66634 7.13805 6.66634 7.08333V6.25C6.66634 6.19528 6.65556 6.1411 6.63462 6.09055C6.61369 6.04 6.58299 5.99406 6.5443 5.95537C6.50561 5.91668 6.45968 5.88599 6.40913 5.86505C6.35857 5.84411 6.30439 5.83333 6.24967 5.83333Z" fill="#1F2329"/>
<path d="M6.24967 8.33333H3.74967C3.63917 8.33333 3.53319 8.37723 3.45505 8.45537C3.37691 8.53351 3.33301 8.63949 3.33301 8.75V9.58333C3.33301 9.69384 3.37691 9.79982 3.45505 9.87796C3.53319 9.9561 3.63917 10 3.74967 10H6.24967C6.30439 10 6.35857 9.98922 6.40913 9.96828C6.45968 9.94734 6.50561 9.91665 6.5443 9.87796C6.58299 9.83927 6.61369 9.79334 6.63462 9.74278C6.65556 9.69223 6.66634 9.63805 6.66634 9.58333V8.75C6.66634 8.69528 6.65556 8.6411 6.63462 8.59055C6.61369 8.54 6.58299 8.49406 6.5443 8.45537C6.50561 8.41668 6.45968 8.38599 6.40913 8.36505C6.35857 8.34411 6.30439 8.33333 6.24967 8.33333Z" fill="#1F2329"/>
<path d="M7.49967 4.16667H9.16634V15.8333H7.49967V4.16667Z" fill="#1F2329"/>
</svg>
