<svg width="18" height="18" viewBox="0 0 18 18" fill="none" xmlns="http://www.w3.org/2000/svg">
<path d="M9 1.125C13.3492 1.125 16.875 4.65076 16.875 9C16.875 13.3492 13.3492 16.875 9 16.875H1.875C1.46079 16.875 1.125 16.5392 1.125 16.125V9C1.125 4.65076 4.65076 1.125 9 1.125ZM2.625 15.375H9C12.5208 15.375 15.375 12.5208 15.375 8.99998C15.375 5.47917 12.5208 2.62498 9 2.62498C5.47918 2.62498 2.625 5.47917 2.625 8.99998V15.375Z" fill="#1CBA90"/>
<path d="M8.625 5.625C8.41789 5.625 8.25 5.79289 8.25 6V8.25H6C5.79289 8.25 5.625 8.41789 5.625 8.625V9.375C5.625 9.58211 5.79289 9.75 6 9.75H8.25V12C8.25 12.2071 8.41789 12.375 8.625 12.375H9.375C9.58211 12.375 9.75 12.2071 9.75 12V9.75H12C12.2071 9.75 12.375 9.58211 12.375 9.375V8.625C12.375 8.41789 12.2071 8.25 12 8.25H9.75V6C9.75 5.79289 9.58211 5.625 9.375 5.625H8.625Z" fill="#1CBA90"/>
</svg>
