<svg width="20" height="20" viewBox="0 0 20 20" fill="none" xmlns="http://www.w3.org/2000/svg">
<path d="M10 1.25C14.8325 1.25 18.75 5.16751 18.75 10C18.75 14.8325 14.8325 18.75 10 18.75H2.08333C1.6231 18.75 1.25 18.3769 1.25 17.9167V10C1.25 5.16751 5.16751 1.25 10 1.25ZM2.91667 17.0833H10C13.912 17.0833 17.0833 13.912 17.0833 9.99998C17.0833 6.08796 13.912 2.91665 10 2.91665C6.08798 2.91665 2.91667 6.08796 2.91667 9.99998V17.0833Z" fill="#1F2329"/>
<path d="M9.58333 6.25C9.35321 6.25 9.16667 6.43655 9.16667 6.66667V9.16667H6.66667C6.43655 9.16667 6.25 9.35321 6.25 9.58333V10.4167C6.25 10.6468 6.43655 10.8333 6.66667 10.8333H9.16667V13.3333C9.16667 13.5635 9.35321 13.75 9.58333 13.75H10.4167C10.6468 13.75 10.8333 13.5635 10.8333 13.3333V10.8333H13.3333C13.5635 10.8333 13.75 10.6468 13.75 10.4167V9.58333C13.75 9.35321 13.5635 9.16667 13.3333 9.16667H10.8333V6.66667C10.8333 6.43655 10.6468 6.25 10.4167 6.25H9.58333Z" fill="#1F2329"/>
</svg>
