<svg width="16" height="16" viewBox="0 0 16 16" fill="none" xmlns="http://www.w3.org/2000/svg">
<path d="M9.66675 4.33333C9.66675 2.49233 8.17342 1 6.33342 1C4.49341 1 3.00008 2.49233 3.00008 4.33333C3.00008 6.17433 4.49341 7.66667 6.33342 7.66667C8.17342 7.66667 9.66675 6.17433 9.66675 4.33333ZM6.33342 6.33333C5.23008 6.33333 4.33341 5.438 4.33341 4.33333C4.33341 3.22867 5.23008 2.33333 6.33342 2.33333C7.43675 2.33333 8.33342 3.22867 8.33342 4.33333C8.33342 5.438 7.43675 6.33333 6.33342 6.33333Z" fill="#1F2329"/>
<path d="M2.00008 12.6667C2.00008 12.4363 2.03008 12.213 2.08341 12C2.38008 10.85 3.42341 10 4.66675 10H7.35005C7.53415 10 7.68339 9.85076 7.68339 9.66667V9C7.68339 8.81591 7.53415 8.66667 7.35005 8.66667H4.66675C2.45675 8.66667 0.666748 10.4577 0.666748 12.6667V14C0.666748 14.3683 0.966748 14.6667 1.33341 14.6667H7.35005C7.53415 14.6667 7.68339 14.5174 7.68339 14.3333V13.6667C7.68339 13.4826 7.53415 13.3333 7.35005 13.3333H2.00008V12.6667Z" fill="#1F2329"/>
<path d="M11.833 7C13.2137 7 14.333 8.11929 14.333 9.5V10H15C15.184 10 15.3328 10.1491 15.333 10.333V14.333C15.333 14.5171 15.1841 14.667 15 14.667H8.66699C8.4829 14.667 8.33301 14.5171 8.33301 14.333V10.333C8.33318 10.1491 8.48301 10 8.66699 10H9.33301V9.5C9.33301 8.1194 10.4524 7.00018 11.833 7ZM9.66699 13.333H14V11.333H9.66699V13.333ZM11.833 8.33301C11.1888 8.33318 10.667 8.85578 10.667 9.5V10H13V9.5C13 8.85567 12.4773 8.33301 11.833 8.33301Z" fill="#1F2329"/>
</svg>
