<svg width="16" height="16" viewBox="0 0 16 16" fill="none" xmlns="http://www.w3.org/2000/svg">
<g clip-path="url(#clip0_3082_188703)">
<path d="M7.99999 15.3337C12.0501 15.3337 15.3333 12.0504 15.3333 8.00033C15.3333 3.95024 12.0501 0.666992 7.99999 0.666992C3.9499 0.666992 0.666656 3.95024 0.666656 8.00033C0.666656 12.0504 3.9499 15.3337 7.99999 15.3337Z" fill="#FF8800"/>
<path d="M7.66668 4.66699C7.48258 4.66699 7.33334 4.81623 7.33334 5.00033V9.00033C7.33334 9.18442 7.48258 9.33366 7.66668 9.33366H8.33334C8.51744 9.33366 8.66668 9.18442 8.66668 9.00033V5.00033C8.66668 4.81623 8.51744 4.66699 8.33334 4.66699H7.66668Z" fill="white"/>
<path d="M7.66668 10.0003C7.48258 10.0003 7.33334 10.1496 7.33334 10.3337V11.0003C7.33334 11.1844 7.48258 11.3337 7.66668 11.3337H8.33334C8.51744 11.3337 8.66668 11.1844 8.66668 11.0003V10.3337C8.66668 10.1496 8.51744 10.0003 8.33334 10.0003H7.66668Z" fill="white"/>
</g>
<defs>
<clipPath id="clip0_3082_188703">
<rect width="16" height="16" fill="white"/>
</clipPath>
</defs>
</svg>
