<svg width="40" height="40" viewBox="0 0 40 40" xmlns="http://www.w3.org/2000/svg">
<circle cx="20" cy="20" r="20" class="icon-primary"/>
<path d="M23.3333 20.5556H16.6667C13.5984 20.5556 10 22.7017 10 26.5556V29.5556C10 30.1079 10.4975 30.5556 11.1111 30.5556H28.8889C29.5025 30.5556 30 30.1079 30 29.5556V26.5556C30 22.6984 26.4016 20.5556 23.3333 20.5556Z" fill="url(#paint0_linear_4698_1064)"/>
<path d="M14.4444 13.8889C14.4444 16.9572 16.9318 19.4445 20 19.4445C23.0682 19.4445 25.5556 16.9572 25.5556 13.8889C25.5556 10.8207 23.0682 8.33337 20 8.33337C16.9318 8.33337 14.4444 10.8207 14.4444 13.8889Z" fill="url(#paint1_linear_4698_1064)"/>
<defs>
<linearGradient id="paint0_linear_4698_1064" x1="20" y1="8.33337" x2="20" y2="31.1112" gradientUnits="userSpaceOnUse">
<stop stop-color="white"/>
<stop offset="1" stop-color="white" stop-opacity="0"/>
</linearGradient>
<linearGradient id="paint1_linear_4698_1064" x1="20" y1="8.33337" x2="20" y2="31.1112" gradientUnits="userSpaceOnUse">
<stop stop-color="white"/>
<stop offset="1" stop-color="white" stop-opacity="0"/>
</linearGradient>
</defs>
</svg>
