<svg width="136" height="125" viewBox="0 0 136 125" fill="none" xmlns="http://www.w3.org/2000/svg">
<g filter="url(#filter0_d_4613_31856)">
<rect x="13" y="25" width="115" height="75" rx="2" fill="white" fill-opacity="0.8" shape-rendering="crispEdges"/>
</g>
<g filter="url(#filter1_d_4613_31856)">
<rect x="8" y="20" width="115" height="75" rx="2" fill="white"/>
</g>
<rect x="41" y="32" width="78" height="58" rx="1" fill="#F5F6F7"/>
<path d="M77.8198 60.7428H53.8831C53.5517 60.7428 53.2235 60.8081 52.9173 60.9349C52.6111 61.0618 52.3329 61.2477 52.0986 61.482C51.8642 61.7164 51.6783 61.9946 51.5515 62.3008C51.4247 62.607 51.3594 62.9352 51.3594 63.2666V74.762C51.3594 75.4313 51.6253 76.0732 52.0986 76.5465C52.5719 77.0198 53.2138 77.2857 53.8831 77.2857H77.8198C78.4891 77.2857 79.131 77.0198 79.6043 76.5465C80.0776 76.0732 80.3435 75.4313 80.3435 74.762V63.2666C80.3435 62.9352 80.2783 62.607 80.1514 62.3008C80.0246 61.9946 79.8387 61.7164 79.6043 61.482C79.37 61.2477 79.0918 61.0618 78.7856 60.9349C78.4794 60.8081 78.1512 60.7428 77.8198 60.7428Z" class="icon-primary"/>
<path d="M51 44C51 43.4477 51.4477 43 52 43H108.877C109.429 43 109.877 43.4477 109.877 44V44.563C109.877 45.1153 109.429 45.563 108.877 45.563H52C51.4477 45.563 51 45.1153 51 44.563V44Z" class="icon-primary_15_d"/>
<path d="M51 49.1429C51 48.5906 51.4477 48.1429 52 48.1429H108.877C109.429 48.1429 109.877 48.5906 109.877 49.1429V49.7059C109.877 50.2582 109.429 50.7059 108.877 50.7059H52C51.4477 50.7059 51 50.2582 51 49.7059V49.1429Z" class="icon-primary_15_d"/>
<path d="M51 54.2857C51 53.7334 51.4477 53.2857 52 53.2857H77.4286C77.9809 53.2857 78.4286 53.7334 78.4286 54.2857V54.8571C78.4286 55.4094 77.9809 55.8571 77.4286 55.8571H52C51.4477 55.8571 51 55.4094 51 54.8571V54.2857Z" class="icon-primary_60"/>
<path d="M62.7535 65.4558H55.1326C54.8177 65.4558 54.5156 65.581 54.2929 65.8037C54.0702 66.0264 53.9451 66.3284 53.9451 66.6434V73.0891C53.9451 73.4041 54.0702 73.7061 54.2929 73.9288C54.5156 74.1515 54.8177 74.2767 55.1326 74.2767H62.7535C63.0684 74.2767 63.3705 74.1515 63.5932 73.9288C63.8159 73.7061 63.941 73.4041 63.941 73.0891V66.6434C63.941 66.3284 63.8159 66.0264 63.5932 65.8037C63.3705 65.581 63.0684 65.4558 62.7535 65.4558Z" fill="white"/>
<path fill-rule="evenodd" clip-rule="evenodd" d="M64.0837 68.8593L59.3932 72.8776L56.9251 71.7629L55.1508 74.3399L54.6848 74.019L56.7272 71.0528L59.2983 72.214L63.7157 68.4297L64.0837 68.8593Z" class="icon-primary"/>
<path d="M78.6398 66.0918H67.1155V65.5261H78.6398V66.0918Z" fill="white"/>
<path d="M72.2911 68.4441H67.1155V67.8784H72.2911V68.4441Z" fill="white"/>
<path d="M78.6398 70.9142H67.1155V70.3485H78.6398V70.9142Z" fill="white"/>
<path d="M76.5249 73.0311H67.1155V72.4654H76.5249V73.0311Z" fill="white"/>
<path d="M58.8976 69.5636C59.2049 69.5636 59.4996 69.4416 59.7169 69.2243C59.9342 69.007 60.0563 68.7123 60.0563 68.405C60.0563 68.0977 59.9342 67.803 59.7169 67.5858C59.4996 67.3685 59.2049 67.2464 58.8976 67.2464C58.5903 67.2464 58.2956 67.3685 58.0784 67.5858C57.8611 67.803 57.739 68.0977 57.739 68.405C57.739 68.7123 57.8611 69.007 58.0784 69.2243C58.2956 69.4416 58.5903 69.5636 58.8976 69.5636Z" class="icon-primary"/>
<path d="M98.71 76.9977C102.96 76.9977 106.436 73.6832 106.695 69.4978C106.712 69.2222 106.486 68.9977 106.21 68.9977C103.71 68.9977 101.21 68.9977 98.71 68.9977C98.71 66.0429 98.71 63.5427 98.71 61.4974C98.71 61.2212 98.4855 60.9961 98.2099 61.0131C94.0245 61.2713 90.71 64.7474 90.71 68.9977C90.71 73.416 94.2917 76.9977 98.71 76.9977Z" class="icon-primary"/>
<path d="M101.19 67.2829C100.767 67.2829 100.424 66.9399 100.424 66.5168V60.9936C100.424 60.6895 100.687 60.4504 100.987 60.5027C104.153 61.0565 106.65 63.554 107.204 66.7201C107.257 67.0196 107.017 67.2829 106.713 67.2829H101.19Z" fill="#00D6B9"/>
<path d="M41 26C41 25.4477 41.4477 25 42 25H94C94.5523 25 95 25.4477 95 26V29C95 29.5523 94.5523 30 94 30H42C41.4477 30 41 29.5523 41 29V26Z" fill="#E0E4E8"/>
<path d="M109 26C109 25.4477 109.448 25 110 25H118C118.552 25 119 25.4477 119 26V29C119 29.5523 118.552 30 118 30H110C109.448 30 109 29.5523 109 29V26Z" fill="#E0E4E8"/>
<path d="M97 26C97 25.4477 97.4477 25 98 25H106C106.552 25 107 25.4477 107 26V29C107 29.5523 106.552 30 106 30H98C97.4477 30 97 29.5523 97 29V26Z" fill="#E0E4E8"/>
<path fill-rule="evenodd" clip-rule="evenodd" d="M14 47.5H37C37.5523 47.5 38 47.8731 38 48.3333V51.6667C38 52.1269 37.5523 52.5 37 52.5H14C13.4477 52.5 13 52.1269 13 51.6667V48.3333C13 47.8731 13.4477 47.5 14 47.5Z" fill="#E0E4E8"/>
<path fill-rule="evenodd" clip-rule="evenodd" d="M14 40H37C37.5523 40 38 40.3731 38 40.8333V44.1667C38 44.6269 37.5523 45 37 45H14C13.4477 45 13 44.6269 13 44.1667V40.8333C13 40.3731 13.4477 40 14 40Z" fill="#E0E4E8"/>
<path fill-rule="evenodd" clip-rule="evenodd" d="M14 55H37C37.5523 55 38 55.3731 38 55.8333V59.1667C38 59.6269 37.5523 60 37 60H14C13.4477 60 13 59.6269 13 59.1667V55.8333C13 55.3731 13.4477 55 14 55Z" fill="#E0E4E8"/>
<path fill-rule="evenodd" clip-rule="evenodd" d="M14 62.5H37C37.5523 62.5 38 62.8731 38 63.3333V66.6667C38 67.1269 37.5523 67.5 37 67.5H14C13.4477 67.5 13 67.1269 13 66.6667V63.3333C13 62.8731 13.4477 62.5 14 62.5Z" class="icon-primary"/>
<path fill-rule="evenodd" clip-rule="evenodd" d="M14 70H37C37.5523 70 38 70.3731 38 70.8333V74.1667C38 74.6269 37.5523 75 37 75H14C13.4477 75 13 74.6269 13 74.1667V70.8333C13 70.3731 13.4477 70 14 70Z" fill="#E0E4E8"/>
<path fill-rule="evenodd" clip-rule="evenodd" d="M14 77.5H37C37.5523 77.5 38 77.8731 38 78.3333V81.6667C38 82.1269 37.5523 82.5 37 82.5H14C13.4477 82.5 13 82.1269 13 81.6667V78.3333C13 77.8731 13.4477 77.5 14 77.5Z" fill="#E0E4E8"/>
<path fill-rule="evenodd" clip-rule="evenodd" d="M14 85H37C37.5523 85 38 85.3731 38 85.8333V89.1667C38 89.6269 37.5523 90 37 90H14C13.4477 90 13 89.6269 13 89.1667V85.8333C13 85.3731 13.4477 85 14 85Z" fill="#E0E4E8"/>
<path fill-rule="evenodd" clip-rule="evenodd" d="M14 32.5H37C37.5523 32.5 38 32.8731 38 33.3333V36.6667C38 37.1269 37.5523 37.5 37 37.5H14C13.4477 37.5 13 37.1269 13 36.6667V33.3333C13 32.8731 13.4477 32.5 14 32.5Z" fill="#E0E4E8"/>
<path fill-rule="evenodd" clip-rule="evenodd" d="M14 25H36.75C37.3023 25 37.75 25.3731 37.75 25.8333V29.1667C37.75 29.6269 37.3023 30 36.75 30H14C13.4477 30 13 29.6269 13 29.1667V25.8333C13 25.3731 13.4477 25 14 25Z" fill="#E0E4E8"/>
<g filter="url(#filter2_d_4613_31856)">
</g>
<defs>
<filter id="filter0_d_4613_31856" x="5" y="21" width="131" height="91" filterUnits="userSpaceOnUse" color-interpolation-filters="sRGB">
<feFlood flood-opacity="0" result="BackgroundImageFix"/>
<feColorMatrix in="SourceAlpha" type="matrix" values="0 0 0 0 0 0 0 0 0 0 0 0 0 0 0 0 0 0 127 0" result="hardAlpha"/>
<feOffset dy="4"/>
<feGaussianBlur stdDeviation="4"/>
<feComposite in2="hardAlpha" operator="out"/>
<feColorMatrix type="matrix" values="0 0 0 0 0.121569 0 0 0 0 0.137255 0 0 0 0 0.160784 0 0 0 0.1 0"/>
<feBlend mode="normal" in2="BackgroundImageFix" result="effect1_dropShadow_4613_31856"/>
<feBlend mode="normal" in="SourceGraphic" in2="effect1_dropShadow_4613_31856" result="shape"/>
</filter>
<filter id="filter1_d_4613_31856" x="0" y="16" width="131" height="91" filterUnits="userSpaceOnUse" color-interpolation-filters="sRGB">
<feFlood flood-opacity="0" result="BackgroundImageFix"/>
<feColorMatrix in="SourceAlpha" type="matrix" values="0 0 0 0 0 0 0 0 0 0 0 0 0 0 0 0 0 0 127 0" result="hardAlpha"/>
<feOffset dy="4"/>
<feGaussianBlur stdDeviation="4"/>
<feComposite in2="hardAlpha" operator="out"/>
<feColorMatrix type="matrix" values="0 0 0 0 0.121569 0 0 0 0 0.137255 0 0 0 0 0.160784 0 0 0 0.1 0"/>
<feBlend mode="normal" in2="BackgroundImageFix" result="effect1_dropShadow_4613_31856"/>
<feBlend mode="normal" in="SourceGraphic" in2="effect1_dropShadow_4613_31856" result="shape"/>
</filter>
<filter id="filter2_d_4613_31856" x="25.937" y="61.7496" width="21.1448" height="22.7092" filterUnits="userSpaceOnUse" color-interpolation-filters="sRGB">
<feFlood flood-opacity="0" result="BackgroundImageFix"/>
<feColorMatrix in="SourceAlpha" type="matrix" values="0 0 0 0 0 0 0 0 0 0 0 0 0 0 0 0 0 0 127 0" result="hardAlpha"/>
<feOffset dy="1"/>
<feGaussianBlur stdDeviation="1.5"/>
<feColorMatrix type="matrix" values="0 0 0 0 0 0 0 0 0 0 0 0 0 0 0 0 0 0 0.25 0"/>
<feBlend mode="normal" in2="BackgroundImageFix" result="effect1_dropShadow_4613_31856"/>
<feBlend mode="normal" in="SourceGraphic" in2="effect1_dropShadow_4613_31856" result="shape"/>
</filter>
</defs>
</svg>
