<?xml version="1.0" standalone="no"?><!DOCTYPE svg PUBLIC "-//W3C//DTD SVG 1.1//EN" "http://www.w3.org/Graphics/SVG/1.1/DTD/svg11.dtd"><svg class="icon" width="200px" height="200.00px" viewBox="0 0 1024 1024" version="1.1" xmlns="http://www.w3.org/2000/svg"><path d="M864 832h-704a32 32 0 0 0 0 64h704a32 32 0 0 0 0-64zM222.72 478.08H384v238.72a34.56 34.56 0 0 0 33.92 34.56h192a34.56 34.56 0 0 0 30.08-34.56V478.08h160.64a30.08 30.08 0 0 0 21.76-51.84L533.76 136.96a30.72 30.72 0 0 0-43.52 0L200.96 426.24a30.08 30.08 0 0 0 21.76 51.84z" /></svg>