<svg width="33" height="32" viewBox="0 0 33 32" xmlns="http://www.w3.org/2000/svg">
<g clip-path="url(#clip0_4611_10636)">
<path d="M0.333374 16C0.333374 8.45753 0.333374 4.68629 2.67652 2.34315C5.01967 0 8.7909 0 16.3334 0C23.8758 0 27.6471 0 29.9902 2.34315C32.3334 4.68629 32.3334 8.45753 32.3334 16C32.3334 23.5425 32.3334 27.3137 29.9902 29.6569C27.6471 32 23.8758 32 16.3334 32C8.7909 32 5.01967 32 2.67652 29.6569C0.333374 27.3137 0.333374 23.5425 0.333374 16Z"/>
<path d="M16.3334 7.66699C18.8646 7.66699 20.9164 9.71667 20.9164 12.25V12.667H23.8334C24.2938 12.667 24.6664 13.0417 24.6664 13.5V23.5C24.6664 23.9583 24.2938 24.333 23.8334 24.333H8.83337C8.37296 24.333 8.00037 23.9583 8.00037 23.5V13.5C8.00037 13.0417 8.37296 12.667 8.83337 12.667H11.7504V12.25C11.7504 9.71667 13.8021 7.66699 16.3334 7.66699ZM16.3334 16.5C14.9527 16.5 13.8334 17.6193 13.8334 19C13.8334 20.3807 14.9527 21.5 16.3334 21.5C17.7141 21.5 18.8334 20.3807 18.8334 19C18.8334 17.6193 17.7141 16.5 16.3334 16.5ZM16.3334 9.33301C14.7225 9.33301 13.4164 10.6375 13.4164 12.25V12.667H19.2504V12.25C19.2504 10.6375 17.9442 9.33301 16.3334 9.33301Z" fill="white"/>
</g>
<defs>
<clipPath id="clip0_4611_10636">
<rect width="32" height="32" fill="white" transform="translate(0.333374)"/>
</clipPath>
</defs>
</svg>
