<svg width="131" height="30" viewBox="0 0 131 30" fill="none" xmlns="http://www.w3.org/2000/svg">
<g clip-path="url(#clip0_477_6686)">
<path d="M28.3328 13.669H28.1019C28.2398 14.4271 28.3088 15.1961 28.3083 15.9667C28.3132 16.9131 28.2005 17.8564 27.9729 18.775H28.6236C28.9021 18.775 29.1691 18.6644 29.3661 18.4674C29.563 18.2705 29.6736 18.0035 29.6736 17.725V15.01C29.6736 14.8339 29.6389 14.6595 29.5716 14.4968C29.5042 14.3341 29.4054 14.1863 29.2809 14.0618C29.1564 13.9373 29.0086 13.8385 28.8459 13.7711C28.6832 13.7037 28.5088 13.669 28.3328 13.669Z" fill="#149CC5"/>
<path d="M1.69163 15.9667C1.69112 15.1961 1.7602 14.4271 1.89803 13.669H1.66725C1.31163 13.669 0.970578 13.8103 0.719122 14.0617C0.467666 14.3132 0.326401 14.6543 0.326401 15.0099V17.7249C0.326401 18.0034 0.437025 18.2704 0.633939 18.4674C0.830852 18.6643 1.09792 18.7749 1.3764 18.7749H2.0271C1.79944 17.8563 1.68675 16.913 1.69163 15.9667Z" fill="#69CAA4"/>
<path d="M15 3.795C8.11088 3.795 2.52623 9.07732 2.52623 15.9664C2.52623 22.8556 8.11095 26.205 15 26.205C21.889 26.205 27.4737 22.8558 27.4737 15.9667C27.4737 9.0777 21.889 3.795 15 3.795ZM18.0265 21.1253H11.9735C11.1168 21.1265 10.2697 20.944 9.48953 20.59C8.9259 20.3341 7.28175 20.8716 6.82703 20.4631C6.276 19.9681 6.94403 18.4942 6.60578 17.827C6.17919 16.9853 5.95756 16.0546 5.95898 15.1109C5.95898 13.5158 6.59263 11.9861 7.72053 10.8582C8.84844 9.73025 10.3782 9.0966 11.9733 9.0966H18.0263C19.6214 9.0966 21.1512 9.73025 22.2791 10.8582C23.407 11.9861 24.0407 13.5158 24.0407 15.1109C24.0407 15.9007 23.8852 16.6828 23.5829 17.4126C23.2807 18.1423 22.8377 18.8053 22.2793 19.3638C21.7208 19.9223 21.0578 20.3654 20.3281 20.6677C19.5985 20.97 18.8164 21.1256 18.0266 21.1256L18.0265 21.1253Z" fill="url(#paint0_linear_477_6686)"/>
<path d="M15 3.795C8.11088 3.795 2.52623 9.07732 2.52623 15.9664C2.52623 22.8556 8.11095 26.205 15 26.205C21.889 26.205 27.4737 22.8558 27.4737 15.9667C27.4737 9.0777 21.889 3.795 15 3.795ZM18.0265 21.1253H11.9735C11.1168 21.1265 10.2697 20.944 9.48953 20.59C8.9259 20.3341 7.28175 20.8716 6.82703 20.4631C6.276 19.9681 6.94403 18.4942 6.60578 17.827C6.17919 16.9853 5.95756 16.0546 5.95898 15.1109C5.95898 13.5158 6.59263 11.9861 7.72053 10.8582C8.84844 9.73025 10.3782 9.0966 11.9733 9.0966H18.0263C19.6214 9.0966 21.1512 9.73025 22.2791 10.8582C23.407 11.9861 24.0407 13.5158 24.0407 15.1109C24.0407 15.9007 23.8852 16.6828 23.5829 17.4126C23.2807 18.1423 22.8377 18.8053 22.2793 19.3638C21.7208 19.9223 21.0578 20.3654 20.3281 20.6677C19.5985 20.97 18.8164 21.1256 18.0266 21.1256L18.0265 21.1253Z" fill="url(#paint1_linear_477_6686)"/>
<path d="M10.5456 14.915H8.76653V18.7946H10.5456V14.915Z" fill="#75CCCC"/>
<path d="M14.1197 13.1932H12.3407V18.7946H14.1197V13.1932Z" fill="#75CCCC"/>
<path d="M17.6938 15.4381H15.9148V18.7946H17.6938V15.4381Z" fill="#75CCCC"/>
<path d="M21.2335 12.4522H19.4544V18.7946H21.2335V12.4522Z" fill="#75CCCC"/>
<path d="M49.9855 14.2255C49.5648 13.7479 48.9791 13.3311 48.2457 12.9865C47.5234 12.648 46.5864 12.338 45.46 12.065C44.7797 11.904 44.2248 11.75 43.8106 11.6085C43.4064 11.4708 43.0957 11.3205 42.887 11.1612C42.7118 11.039 42.5779 10.8663 42.5032 10.666C42.4319 10.4299 42.3986 10.184 42.4043 9.93742C42.4043 9.20599 42.6086 8.73468 43.0291 8.49633C43.4773 8.24209 44.2263 8.11322 45.2553 8.11322C45.6439 8.11322 46.0627 8.13121 46.5001 8.16684C46.9356 8.20275 47.3727 8.25693 47.799 8.32784C48.2288 8.39973 48.6265 8.47666 48.9812 8.55653C49.3329 8.63584 49.6291 8.71221 49.8618 8.78361L50.0994 8.85648V5.08593L49.9775 5.04239C49.4622 4.85836 48.7815 4.69582 47.9542 4.55939C47.0074 4.41387 46.0505 4.34497 45.0928 4.35338C42.8788 4.35338 41.1341 4.78913 39.9072 5.64838C38.6596 6.52191 38.0271 8.0015 38.0271 10.0461C38.0271 10.9094 38.1114 11.6474 38.2778 12.2396C38.4364 12.8257 38.7411 13.3617 39.1632 13.7974C39.5756 14.2203 40.1291 14.5809 40.8077 14.8693C41.4737 15.1529 42.3272 15.4165 43.3413 15.6519C43.9259 15.7923 44.503 15.9624 45.0703 16.1617C45.4914 16.3167 45.8201 16.4892 46.0471 16.6743C46.2471 16.829 46.4008 17.0357 46.4914 17.2719C46.5811 17.5499 46.6233 17.841 46.6163 18.1329C46.625 18.4706 46.5739 18.8071 46.4654 19.1269C46.3721 19.3796 46.2014 19.5962 45.9776 19.7457C45.7388 19.9107 45.4171 20.0284 45.0215 20.0957C44.5162 20.1728 44.0054 20.2083 43.4943 20.2017C43.0129 20.2017 42.5217 20.179 42.0341 20.1345C41.5428 20.0901 41.0578 20.0356 40.5925 19.9726C40.1271 19.9096 39.6864 19.8334 39.2793 19.7445C38.9292 19.6721 38.5846 19.5748 38.2482 19.4535L38 19.3602V23.3743L38.1339 23.412C38.7177 23.5765 39.5139 23.7334 40.5008 23.8783C41.5461 24.0276 42.6009 24.1008 43.6569 24.0974C46.2731 24.0974 48.1823 23.5939 49.3314 22.6008C50.4884 21.6011 51.075 20.1345 51.075 18.2417C51.075 17.3461 51.0005 16.5698 50.8534 15.9342C50.7116 15.3008 50.4132 14.7132 49.9855 14.2255Z" fill="#485559"/>
<path d="M68.9312 6.37533C68.189 5.6229 67.2588 5.09076 66.1662 4.79382C65.0885 4.5015 63.8416 4.35324 62.4603 4.35324C61.0965 4.35324 59.8587 4.5015 58.7815 4.79382C57.6885 5.09076 56.7582 5.6229 56.0164 6.37533C55.2762 7.1258 54.705 8.15102 54.3185 9.42257C53.9357 10.6826 53.7416 12.2982 53.7416 14.2251C53.7416 16.134 53.9311 17.7403 54.3046 18.9991C54.6815 20.2704 55.2435 21.2958 55.9751 22.0466C56.7261 22.8099 57.6656 23.3604 58.6981 23.6419C59.9655 24.0125 61.2802 24.1956 62.6004 24.1854C64.2721 24.1854 67.182 23.705 68.4129 22.5242C68.9675 21.9922 69.5299 21.4276 69.9375 20.6762C70.3419 19.9301 70.6536 19.0133 70.864 17.9512C71.0731 16.8942 71.1791 15.6402 71.1791 14.2248C71.1791 12.2993 70.9896 10.6839 70.616 9.42341C70.2386 8.15221 69.6717 7.12657 68.9312 6.37533ZM60.4175 8.41121C60.9347 8.19547 61.622 8.08613 62.4603 8.08613C63.2986 8.08613 63.991 8.19561 64.5175 8.41156C65.0183 8.61289 65.4396 8.97264 65.7172 9.43601C66.0097 9.91901 66.2157 10.5576 66.3293 11.3346C66.4553 12.2929 66.5135 13.259 66.5035 14.2256C66.5035 15.3682 66.4449 16.3452 66.3294 17.1294C66.216 17.8966 66.0106 18.5209 65.7189 18.985C65.4369 19.4352 65.016 19.7811 64.52 19.9702C63.9929 20.1779 63.2999 20.2831 62.4603 20.2831C61.6208 20.2831 60.9327 20.1781 60.4151 19.9706C59.9239 19.7788 59.5077 19.4331 59.2288 18.985C58.9367 18.5208 58.7313 17.8965 58.6183 17.1294C58.5028 16.3481 58.4442 15.3711 58.4442 14.2256C58.434 13.259 58.4922 12.2929 58.6184 11.3346C58.7316 10.5576 58.9375 9.91894 59.2304 9.43601C59.5051 8.97487 59.9216 8.61531 60.4175 8.41121Z" fill="#485559"/>
<path d="M78.9823 4.62463H74.4965V23.8256H86.4606V19.8755H78.9823V4.62463Z" fill="#485559"/>
<path d="M100.062 13.785C100.92 13.4782 101.539 13.0206 101.905 12.4214C102.318 11.7434 102.528 10.8894 102.528 9.88317C102.528 9.01678 102.415 8.24804 102.193 7.59823C101.968 6.93804 101.557 6.35734 101.009 5.92649C100.457 5.48619 99.7074 5.15474 98.7818 4.94138C97.8679 4.73138 96.7054 4.62463 95.3267 4.62463H88.8027V23.8256H95.8957C97.278 23.8256 98.4427 23.7002 99.3575 23.453C100.283 23.2026 101.032 22.8335 101.584 22.3561C102.136 21.8804 102.545 21.2594 102.763 20.5634C102.995 19.8023 103.107 19.0099 103.097 18.2143C103.097 15.9286 102.076 14.4405 100.062 13.785ZM97.8991 11.375C97.7688 11.6337 97.5588 11.8435 97.3 11.9732C97.0131 12.1252 96.6374 12.2327 96.1831 12.2927C95.6202 12.3602 95.0536 12.3914 94.4867 12.3861H93.2886V8.27604H94.4867C95.1432 8.27604 95.721 8.29865 96.2039 8.3431C96.6647 8.38601 97.0373 8.48373 97.3115 8.63353C97.5654 8.76636 97.771 8.97599 97.899 9.23259C98.03 9.49544 98.0964 9.86042 98.0964 10.3176C98.0964 10.7567 98.03 11.1124 97.8991 11.375ZM93.2886 15.739H95.0016C95.5989 15.7311 96.1958 15.7711 96.7868 15.8587C97.2456 15.9352 97.6085 16.0624 97.8654 16.2367C98.1065 16.3951 98.2912 16.626 98.393 16.8962C98.5101 17.2325 98.5657 17.5872 98.557 17.9433C98.557 18.4067 98.5019 18.7863 98.393 19.0715C98.2944 19.3363 98.1062 19.5581 97.8611 19.6983C97.5938 19.8574 97.2288 19.9727 96.7759 20.0409C96.1878 20.1192 95.5948 20.1548 95.0016 20.1473H93.2886V15.739Z" fill="#485559"/>
<path d="M118.254 10.157C117.602 9.5447 116.806 9.109 115.939 8.89113C115.041 8.65313 114.005 8.53217 112.857 8.53217C111.71 8.53217 110.669 8.65292 109.762 8.89099C108.842 9.13326 108.058 9.55928 107.433 10.1571C106.808 10.7549 106.324 11.5646 105.99 12.5657C105.661 13.5569 105.493 14.8182 105.493 16.3145C105.493 17.8108 105.661 19.0721 105.99 20.0633C106.324 21.065 106.809 21.8754 107.433 22.4718C108.058 23.0701 108.842 23.4961 109.762 23.738C110.669 23.976 111.71 24.0968 112.857 24.0968C114.005 24.0968 115.041 23.9761 115.939 23.7378C116.806 23.5203 117.603 23.0845 118.254 22.4719C118.878 21.8748 119.364 21.0644 119.697 20.0633C120.027 19.0721 120.194 17.8109 120.194 16.3145C120.194 14.8181 120.027 13.5565 119.697 12.5657C119.364 11.5653 118.878 10.7549 118.254 10.157ZM114.299 20.5374C113.915 20.6744 113.43 20.7438 112.857 20.7438C112.284 20.7438 111.804 20.6745 111.43 20.5377C111.073 20.4113 110.767 20.1737 110.556 19.8597C110.328 19.5303 110.161 19.0751 110.057 18.5068C109.951 17.9235 109.898 17.1859 109.898 16.3145C109.888 15.58 109.937 14.846 110.045 14.1194C110.139 13.5524 110.302 13.0929 110.53 12.7539C110.743 12.4302 111.055 12.1834 111.418 12.0497C111.802 11.9045 112.287 11.8308 112.857 11.8308C113.427 11.8308 113.906 11.9043 114.281 12.0491C114.639 12.1871 114.945 12.4335 115.157 12.754C115.386 13.0932 115.554 13.5536 115.657 14.1223C115.763 14.7057 115.817 15.4433 115.817 16.3146C115.826 17.049 115.777 17.783 115.67 18.5096C115.575 19.0771 115.412 19.5316 115.185 19.8598C114.971 20.176 114.66 20.4138 114.299 20.5375V20.5374Z" fill="#485559"/>
<path d="M130.652 12.2652V8.80368H127.618V5.33014H123.322V8.80368H121.398V12.2652H123.322V18.9469C123.322 19.9187 123.41 20.7384 123.585 21.3829C123.765 22.0459 124.06 22.5767 124.462 22.9604C124.865 23.3441 125.399 23.6148 126.051 23.7663C126.686 23.9132 127.47 23.9881 128.382 23.9881C128.711 23.9881 129.044 23.9741 129.373 23.9468C129.696 23.9198 130.008 23.8876 130.302 23.851L130.463 23.831V20.3971L130.237 20.4504C129.867 20.5267 129.491 20.5615 129.114 20.5539C128.848 20.5611 128.583 20.5316 128.325 20.4663C128.16 20.4239 128.011 20.3309 127.901 20.2003C127.781 20.0388 127.706 19.8489 127.683 19.6494C127.634 19.309 127.612 18.9653 127.618 18.6214V12.2654L130.652 12.2652Z" fill="#485559"/>
<path d="M69.9428 25.1193L68.0201 26.5826C67.9148 26.6628 67.7948 26.7214 67.6669 26.755C67.5391 26.7887 67.4058 26.7969 67.2748 26.779C67.1438 26.7611 67.0176 26.7175 66.9034 26.6508C66.7892 26.584 66.6892 26.4954 66.6092 26.39L64.3819 23.4544C64.2203 23.2415 64.1498 22.973 64.1859 22.708C64.222 22.443 64.3618 22.2032 64.5744 22.0414L66.4971 20.5784C66.7097 20.4166 66.9778 20.346 67.2424 20.3822C67.507 20.4183 67.7464 20.5582 67.908 20.7712L70.1353 23.7067C70.2153 23.8122 70.2738 23.9324 70.3074 24.0604C70.3411 24.1885 70.3492 24.322 70.3313 24.4532C70.3134 24.5844 70.2699 24.7108 70.2033 24.8252C70.1366 24.9395 70.0481 25.0397 69.9428 25.1198V25.1193Z" fill="#485559"/>
</g>
<defs>
<linearGradient id="paint0_linear_477_6686" x1="6.65018" y1="4.44097" x2="25.0992" y2="29.2491" gradientUnits="userSpaceOnUse">
<stop stop-color="#B2F288"/>
<stop offset="0.181" stop-color="#80D79C"/>
<stop offset="0.371" stop-color="#52BEAD"/>
<stop offset="0.554" stop-color="#2FAABB"/>
<stop offset="0.724" stop-color="#159CC5"/>
<stop offset="0.878" stop-color="#0594CB"/>
<stop offset="1" stop-color="#0091CD"/>
</linearGradient>
<linearGradient id="paint1_linear_477_6686" x1="6.65018" y1="4.44097" x2="25.0992" y2="29.2491" gradientUnits="userSpaceOnUse">
<stop stop-color="#B2F288"/>
<stop offset="0.181" stop-color="#80D79C"/>
<stop offset="0.371" stop-color="#52BEAD"/>
<stop offset="0.554" stop-color="#2FAABB"/>
<stop offset="0.724" stop-color="#159CC5"/>
<stop offset="0.878" stop-color="#0594CB"/>
<stop offset="1" stop-color="#0091CD"/>
</linearGradient>
<clipPath id="clip0_477_6686">
<rect width="131" height="30" fill="white"/>
</clipPath>
</defs>
</svg>
