<svg width="16" height="16" viewBox="0 0 24 24" fill="none" xmlns="http://www.w3.org/2000/svg">
<path d="M2.5 20V11.5455C2.5 10.9681 2.97969 10.5 3.57143 10.5H8V3.05263C8 2.47128 8.51167 2 9.14285 2H14.8571C15.4883 2 16 2.47128 16 3.05263V8H20.4286C21.0203 8 21.5 8.44772 21.5 9V20H22.4998C22.776 20 22.9998 20.2239 22.9998 20.5V21.5C22.9998 21.7761 22.776 22 22.4998 22H1.49982C1.22368 22 0.999825 21.7761 0.999825 21.5V20.5C0.999825 20.2239 1.22368 20 1.49982 20H2.5ZM19.5 20V10H16V20H19.5ZM14 20V4H10V20H14ZM8 20V12.5H4.5V20H8Z" fill="currentColor"/>
</svg>
