<svg width="16" height="16" viewBox="0 0 24 24"  xmlns="http://www.w3.org/2000/svg">
<path d="M3.99983 2.50017H12.4544C13.0318 2.50017 13.4998 2.97987 13.4998 3.5716V8.00017H20.9472C21.5286 8.00017 21.9998 8.51185 21.9998 9.14303V14.8573C21.9998 15.4885 21.5286 16.0002 20.9472 16.0002H15.9998V20.4287C15.9998 21.0205 15.5521 21.5002 14.9998 21.5002H3.99983V22.5C3.99983 22.7761 3.77597 23 3.49983 23H2.49983C2.22369 23 1.99983 22.7761 1.99983 22.5V1.5C1.99983 1.22386 2.22369 1 2.49983 1H3.49983C3.77597 1 3.99983 1.22386 3.99983 1.5V2.50017ZM3.99983 19.5002H13.9998V16.0002H3.99983V19.5002ZM3.99983 14.0002H19.9998V10.0002H3.99983V14.0002ZM3.99983 8.00017H11.4998V4.50017H3.99983V8.00017Z" fill="currentColor"/>
</svg>
