<svg width="16" height="16" viewBox="0 0 24 24"  xmlns="http://www.w3.org/2000/svg">
<path d="M12 21.3333C17.1547 21.3333 21.3333 17.1547 21.3333 12C18.2222 12 15.1111 12 12 12C12 8.26667 12 5.15556 12 2.66667C6.84534 2.66667 2.66666 6.84534 2.66666 12C2.66666 17.1547 6.84534 21.3333 12 21.3333ZM10.1667 12.7667C10.1667 13.3558 10.6442 13.8333 11.2333 13.8333H19.3333C18.5063 17.0465 15.4713 19.3333 12 19.3333C7.88562 19.3333 4.66666 15.9961 4.66666 11.8817C4.66666 8.41043 6.95354 5.49367 10.1667 4.66667V12.7667Z" fill="currentColor"/>
<path d="M14.8938 10C14.4002 10 14 9.59984 14 9.10621V2C18.2226 2.41925 21.5807 5.77735 22 10H14.8938ZM16 4.66667V8H19.3333C18.7209 6.4875 17.5125 5.27905 16 4.66667Z" fill="currentColor"/>
</svg>
