<svg width="18" height="18" viewBox="0 0 18 18" xmlns="http://www.w3.org/2000/svg">
<path d="M9 1.125C13.3492 1.125 16.875 4.65076 16.875 9C16.875 13.3492 13.3492 16.875 9 16.875H1.875C1.46079 16.875 1.125 16.5392 1.125 16.125V9C1.125 4.65076 4.65076 1.125 9 1.125ZM5.625 10.125C5.41789 10.125 5.25 10.2929 5.25 10.5V11.25C5.25 11.4571 5.41789 11.625 5.625 11.625H9.375C9.58211 11.625 9.75 11.4571 9.75 11.25V10.5C9.75 10.2929 9.58211 10.125 9.375 10.125H5.625ZM5.625 7.125C5.41789 7.125 5.25 7.29289 5.25 7.5V8.25C5.25 8.45711 5.41789 8.625 5.625 8.625H12.375C12.5821 8.625 12.75 8.45711 12.75 8.25V7.5C12.75 7.29289 12.5821 7.125 12.375 7.125H5.625Z" />
</svg>
