<svg width="18" height="18" viewBox="0 0 18 18" fill="none" xmlns="http://www.w3.org/2000/svg">
<path d="M1.875 15V8.65909C1.875 8.22605 2.23477 7.875 2.67857 7.875H6V2.28947C6 1.85346 6.38376 1.5 6.85714 1.5H11.1429C11.6162 1.5 12 1.85346 12 2.28947V6H15.3214C15.7652 6 16.125 6.33579 16.125 6.75V15H16.8749C17.082 15 17.2499 15.1679 17.2499 15.375V16.125C17.2499 16.3321 17.082 16.5 16.8749 16.5H1.12487C0.917764 16.5 0.74987 16.3321 0.74987 16.125V15.375C0.74987 15.1679 0.917764 15 1.12487 15H1.875ZM14.625 15V7.5H12V15H14.625ZM10.5 15V3H7.5V15H10.5ZM6 15V9.375H3.375V15H6Z" fill="#1F2329"/>
</svg>
