<svg width="18" height="18" viewBox="0 0 18 18" fill="none" xmlns="http://www.w3.org/2000/svg">
<path d="M9 1.125C13.3492 1.125 16.875 4.65076 16.875 9C16.875 13.3492 13.3492 16.875 9 16.875H1.875C1.46079 16.875 1.125 16.5392 1.125 16.125V9C1.125 4.65076 4.65076 1.125 9 1.125ZM2.625 15.375H9C12.5208 15.375 15.375 12.5208 15.375 8.99998C15.375 5.47917 12.5208 2.62498 9 2.62498C5.47918 2.62498 2.625 5.47917 2.625 8.99998V15.375ZM5.625 10.125H9.375C9.58211 10.125 9.75 10.2929 9.75 10.5V11.25C9.75 11.4571 9.58211 11.625 9.375 11.625H5.625C5.41789 11.625 5.25 11.4571 5.25 11.25V10.5C5.25 10.2929 5.41789 10.125 5.625 10.125ZM5.625 7.12498H12.375C12.5821 7.12498 12.75 7.29287 12.75 7.49998V8.24998C12.75 8.45709 12.5821 8.62498 12.375 8.62498H5.625C5.41789 8.62498 5.25 8.45709 5.25 8.24998V7.49998C5.25 7.29287 5.41789 7.12498 5.625 7.12498Z" fill="#1F2329"/>
</svg>
