<svg width="18" height="18" viewBox="0 0 18 18" fill="none" xmlns="http://www.w3.org/2000/svg">
<path d="M6.75 9.75H11.25C13.3211 9.75 15.75 11.1964 15.75 13.8V15.825C15.75 16.1978 15.4142 16.5 15 16.5H3C2.58579 16.5 2.25 16.1978 2.25 15.825V13.8C2.25 11.1986 4.67893 9.75 6.75 9.75ZM14.25 15V13.75C14.25 12.1739 12.6532 11.25 11.25 11.25H6.75C5.37748 11.25 3.75 12.1288 3.75 13.75V15H14.25ZM9 9C6.92893 9 5.25 7.32107 5.25 5.25C5.25 3.17893 6.92893 1.5 9 1.5C11.0711 1.5 12.75 3.17893 12.75 5.25C12.75 7.32107 11.0711 9 9 9ZM9 7.5C10.2426 7.5 11.25 6.49264 11.25 5.25C11.25 4.00736 10.2426 3 9 3C7.75736 3 6.75 4.00736 6.75 5.25C6.75 6.49264 7.75736 7.5 9 7.5Z" fill="#1F2329"/>
</svg>
