<svg width="18" height="18" viewBox="0 0 18 18" xmlns="http://www.w3.org/2000/svg">
<path d="M1.5 15.375C1.5 15.1679 1.66789 15 1.875 15H16.125C16.3321 15 16.5 15.1679 16.5 15.375V16.125C16.5 16.3321 16.3321 16.5 16.125 16.5H1.875C1.66789 16.5 1.5 16.3321 1.5 16.125V15.375Z" />
<path d="M2.25 8.625C2.25 8.41789 2.41789 8.25 2.625 8.25H4.875C5.08211 8.25 5.25 8.41789 5.25 8.625V13.125C5.25 13.3321 5.08211 13.5 4.875 13.5H2.625C2.41789 13.5 2.25 13.3321 2.25 13.125V8.625Z" />
<path d="M7.5 2.625C7.5 2.41789 7.66789 2.25 7.875 2.25H10.125C10.3321 2.25 10.5 2.41789 10.5 2.625V13.125C10.5 13.3321 10.3321 13.5 10.125 13.5H7.875C7.66789 13.5 7.5 13.3321 7.5 13.125V2.625Z" />
<path d="M12.75 6.375C12.75 6.16789 12.9179 6 13.125 6H15.375C15.5821 6 15.75 6.16789 15.75 6.375V13.125C15.75 13.3321 15.5821 13.5 15.375 13.5H13.125C12.9179 13.5 12.75 13.3321 12.75 13.125V6.375Z" />
</svg>
