<svg width="18" height="18" viewBox="0 0 18 18" fill="none" xmlns="http://www.w3.org/2000/svg">
<path d="M4.125 3.75C4.74632 3.75 5.25 4.25368 5.25 4.875C5.25 5.49632 4.74632 6 4.125 6C3.50368 6 3 5.49632 3 4.875C3 4.25368 3.50368 3.75 4.125 3.75Z" fill="#1F2329"/>
<path d="M7.875 3.75C8.49632 3.75 9 4.25368 9 4.875C9 5.49632 8.49632 6 7.875 6C7.25368 6 6.75 5.49632 6.75 4.875C6.75 4.25368 7.25368 3.75 7.875 3.75Z" fill="#1F2329"/>
<path fill-rule="evenodd" clip-rule="evenodd" d="M16.5 1.5C16.9142 1.5 17.25 1.83579 17.25 2.25V15.75C17.25 16.1642 16.9142 16.5 16.5 16.5H1.5C1.08579 16.5 0.75 16.1642 0.75 15.75V2.25C0.75 1.83579 1.08579 1.5 1.5 1.5H16.5ZM2.25 8.25V15H15.75V8.25H2.25ZM2.25 6.75H15.75V3H2.25V6.75Z" fill="#1F2329"/>
</svg>
