<svg width="18" height="18" viewBox="0 0 18 18" xmlns="http://www.w3.org/2000/svg">
<path d="M0.75 6.73664C0.75 6.37645 1.11935 6.13442 1.4496 6.27821L7.86626 9.07196C8.04869 9.15139 8.16666 9.33142 8.16666 9.53039V16.4223C8.16666 16.7985 7.76697 17.0399 7.43402 16.8649L1.02937 13.4984C0.945878 13.4526 0.876167 13.3864 0.827168 13.3062C0.778169 13.2261 0.75159 13.1349 0.750073 13.0416L0.75 13.0332V6.73664ZM16.5478 6.27003C16.8783 6.12387 17.25 6.3659 17.25 6.72732V13.0332C17.25 13.1279 17.2241 13.2209 17.175 13.3026C17.1259 13.3844 17.0554 13.4519 16.9706 13.4984L10.566 16.8649C10.233 17.0399 9.83332 16.7985 9.83333 16.4223L9.83334 9.56461C9.83334 9.36667 9.95011 9.18737 10.1311 9.10732L16.5478 6.27003ZM8.72991 1.56903C8.81234 1.52381 8.90537 1.50005 9 1.50005C9.09463 1.50005 9.18766 1.52381 9.27009 1.56903L15.374 4.2802C15.7722 4.45707 15.7694 5.02318 15.3694 5.19609L9.19843 7.86421C9.07181 7.91895 8.92819 7.91895 8.80157 7.86421L2.63054 5.19609C2.23061 5.02318 2.2278 4.45707 2.626 4.2802L8.72991 1.56903Z"/>
</svg>
