<svg width="18" height="18" viewBox="0 0 18 18" xmlns="http://www.w3.org/2000/svg">
<path d="M1.5 1.5C1.08579 1.5 0.75 1.83579 0.75 2.25V15.75C0.75 16.1642 1.08579 16.5 1.5 16.5H16.5C16.9142 16.5 17.25 16.1642 17.25 15.75V2.25C17.25 1.83579 16.9142 1.5 16.5 1.5H1.5ZM15 14.25H3V6.75H15V14.25ZM5.25 4.125C5.25 4.74632 4.74632 5.25 4.125 5.25C3.50368 5.25 3 4.74632 3 4.125C3 3.50368 3.50368 3 4.125 3C4.74632 3 5.25 3.50368 5.25 4.125ZM7.875 5.25C7.25368 5.25 6.75 4.74632 6.75 4.125C6.75 3.50368 7.25368 3 7.875 3C8.49632 3 9 3.50368 9 4.125C9 4.74632 8.49632 5.25 7.875 5.25Z"/>
</svg>
