<svg width="18" height="18" viewBox="0 0 18 18" fill="none" xmlns="http://www.w3.org/2000/svg">
<path fill-rule="evenodd" clip-rule="evenodd" d="M3.24661 14.8002L3.01327 14.546C2.19633 13.6562 1.58342 12.5949 1.2241 11.4358L1.1228 11.1091L2.65884 8.99998L1.1228 6.89091L1.2241 6.56415C1.58342 5.40507 2.19633 4.34374 3.01327 3.45391L3.24661 3.19975L5.82797 3.4819L6.87644 1.09177L7.21264 1.01608C7.7952 0.884929 8.3937 0.818161 9.00034 0.818161C9.60698 0.818161 10.2055 0.884929 10.788 1.01608L11.1242 1.09177L12.1727 3.4819L14.7541 3.19975L14.9874 3.45391C15.8044 4.34374 16.4173 5.40507 16.7766 6.56415L16.8779 6.89091L15.3418 8.99998L16.8779 11.1091L16.7766 11.4358C16.4173 12.5949 15.8044 13.6562 14.9874 14.546L14.7541 14.8002L12.1727 14.5181L11.1242 16.9082L10.788 16.9839C10.2055 17.115 9.60698 17.1818 9.00034 17.1818C8.3937 17.1818 7.7952 17.115 7.21264 16.9839L6.87644 16.9082L5.82797 14.5181L3.24661 14.8002ZM5.86043 13.1427C6.34502 13.0897 6.80792 13.3574 7.00375 13.8038L7.84408 15.7195C8.22309 15.7849 8.60943 15.8181 9.00034 15.8181C9.39126 15.8181 9.77759 15.7849 10.1566 15.7195L10.9969 13.8038C11.1928 13.3574 11.6557 13.0897 12.1403 13.1427L14.2059 13.3685C14.7048 12.768 15.0982 12.0857 15.3667 11.3504L14.1334 9.65698C13.8482 9.26538 13.8482 8.7345 14.1334 8.34289L15.3667 6.64952C15.0982 5.91422 14.7048 5.23188 14.2059 4.63138L12.1403 4.85716C11.6557 4.91013 11.1928 4.64246 10.9969 4.19604L10.1566 2.2804C9.77759 2.21496 9.39126 2.18176 9.00034 2.18176C8.60943 2.18176 8.22309 2.21496 7.84408 2.2804L7.00375 4.19604C6.80792 4.64246 6.34502 4.91013 5.86043 4.85716L3.79477 4.63138C3.29587 5.23188 2.90251 5.91422 2.63399 6.64952L3.86728 8.34289C4.15248 8.7345 4.15248 9.26538 3.86728 9.65698L2.63399 11.3504C2.90251 12.0857 3.29587 12.768 3.79477 13.3685L5.86043 13.1427ZM9.00034 12.4091C7.124 12.4091 5.60424 10.882 5.60424 8.99997C5.60424 7.11791 7.124 5.59088 9.00034 5.59088C10.8767 5.59088 12.3964 7.11791 12.3964 8.99997C12.3964 10.882 10.8767 12.4091 9.00034 12.4091ZM9.00034 11.0455C10.1221 11.0455 11.0328 10.1304 11.0328 9.00002C11.0328 7.86962 10.1221 6.95457 9.00034 6.95457C7.87857 6.95457 6.96787 7.86962 6.96787 9.00002C6.96787 10.1304 7.87857 11.0455 9.00034 11.0455Z" fill="#1F2329"/>
</svg>
