<svg width="18" height="18" viewBox="0 0 18 18" xmlns="http://www.w3.org/2000/svg">
<path d="M2.93782 14.5935C2.1193 13.7061 1.49299 12.6387 1.125 11.4573L2.43707 9.66437C2.72657 9.26876 2.72657 8.73124 2.43707 8.33563L1.125 6.54267C1.49299 5.36128 2.1193 4.29386 2.93782 3.40655L5.14275 3.6464C5.63031 3.69944 6.09604 3.43052 6.29385 2.98174L7.18964 0.949401C7.77221 0.818869 8.37806 0.75 9 0.75C9.62194 0.75 10.2278 0.818869 10.8104 0.949401L11.7062 2.98174C11.904 3.43052 12.3697 3.69944 12.8573 3.6464L15.0622 3.40655C15.8807 4.29386 16.507 5.36128 16.875 6.54267L15.5629 8.33563C15.2734 8.73124 15.2734 9.26876 15.5629 9.66437L16.875 11.4573C16.507 12.6387 15.8807 13.7061 15.0622 14.5935L12.8573 14.3536C12.3697 14.3006 11.904 14.5695 11.7062 15.0183L10.8104 17.0506C10.2278 17.1811 9.62194 17.25 9 17.25C8.37806 17.25 7.77221 17.1811 7.18964 17.0506L6.29385 15.0183C6.09604 14.5695 5.63031 14.3006 5.14275 14.3536L2.93782 14.5935ZM9 12C10.6569 12 12 10.6569 12 9C12 7.34315 10.6569 6 9 6C7.34315 6 6 7.34315 6 9C6 10.6569 7.34315 12 9 12Z"/>
</svg>
