<svg width="18" height="18" viewBox="0 0 18 18" xmlns="http://www.w3.org/2000/svg">
<path d="M9.20133 2.00312L16.7528 6.80862C16.9844 6.95598 16.9844 7.29401 16.7528 7.44137L9.20133 12.2469C9.07849 12.325 8.92151 12.325 8.79867 12.2469L1.24716 7.44137C1.0156 7.29401 1.0156 6.95598 1.24716 6.80862L8.79867 2.00312C8.92151 1.92495 9.07849 1.92495 9.20133 2.00312Z"/>
<path d="M1.94733 10.4146C1.77077 10.3063 1.53988 10.3617 1.43162 10.5383L1.03958 11.1776C0.931327 11.3542 0.986698 11.5851 1.16326 11.6933L8.02962 15.9034C8.5114 16.1988 9.11357 16.1988 9.59535 15.9034L16.4617 11.6933C16.6383 11.5851 16.6936 11.3542 16.5854 11.1776L16.1933 10.5383C16.0851 10.3617 15.8542 10.3063 15.6776 10.4146L8.91049 14.5638C8.85036 14.6007 8.77461 14.6007 8.71447 14.5638L1.94733 10.4146Z"/>
</svg>
