<svg width="18" height="18" viewBox="0 0 18 18" fill="none" xmlns="http://www.w3.org/2000/svg">
<path d="M0.75 5.73282C0.75 5.43871 0.921902 5.17175 1.18965 5.05005L8.68965 1.64096C8.88684 1.55132 9.11316 1.55132 9.31035 1.64096L16.8104 5.05005C17.0781 5.17175 17.25 5.43871 17.25 5.73282V13.0364C17.25 13.3204 17.0895 13.5801 16.8354 13.7072L9.33541 17.4572C9.12426 17.5628 8.87574 17.5628 8.66459 17.4572L1.16459 13.7072C0.910502 13.5801 0.75 13.3204 0.75 13.0364V5.73282ZM14.4134 5.6082L9 3.14757L3.5574 5.62148L8.96997 7.95306L14.4134 5.6082ZM9.75 9.2503V15.5728L15.75 12.5728V6.66568L9.75 9.2503ZM2.25 6.69155V12.5728L8.25 15.5728V9.27618L2.25 6.69155Z" fill="#1F2329"/>
</svg>
