<svg width="18" height="18" viewBox="0 0 18 18" xmlns="http://www.w3.org/2000/svg">
<path d="M1.875 4.125C1.875 4.42047 2.05929 4.71306 2.41736 4.98604C2.77542 5.25902 3.30025 5.50706 3.96186 5.71599C4.62348 5.92492 5.40894 6.09066 6.27338 6.20373C7.13783 6.3168 8.06433 6.375 9 6.375C9.93567 6.375 10.8622 6.3168 11.7266 6.20373C12.5911 6.09066 13.3765 5.92492 14.0381 5.71599C14.6998 5.50706 15.2246 5.25902 15.5826 4.98604C15.9407 4.71306 16.125 4.42047 16.125 4.125C16.125 3.52826 15.3743 2.95597 14.0381 2.53401C12.7019 2.11205 10.8897 1.875 9 1.875C7.11033 1.875 5.29806 2.11205 3.96186 2.53401C2.62567 2.95597 1.875 3.52826 1.875 4.125Z" />
<path d="M9 12.375C5.86875 12.375 3.21 11.7375 2.25375 10.8525C2.22216 10.822 2.18229 10.8015 2.13911 10.7935C2.09593 10.7855 2.05135 10.7904 2.01095 10.8076C1.97055 10.8248 1.93611 10.8536 1.91193 10.8902C1.88775 10.9269 1.87491 10.9698 1.875 11.0138V13.875C1.875 15.1163 5.06625 16.125 9 16.125C12.9338 16.125 16.125 15.1163 16.125 13.875V11.0138C16.125 10.815 15.8925 10.7175 15.7463 10.8525C14.79 11.7375 12.1313 12.375 9 12.375Z" />
<path d="M9 7.5C5.86875 7.5 3.21 6.8625 2.25375 5.9775C2.22216 5.947 2.18229 5.92648 2.13911 5.9185C2.09593 5.91052 2.05135 5.91544 2.01095 5.93264C1.97055 5.94984 1.93611 5.97856 1.91193 6.01522C1.88775 6.05187 1.87491 6.09484 1.875 6.13875V9C1.875 10.2413 5.06625 11.25 9 11.25C12.9338 11.25 16.125 10.2413 16.125 9V6.13875C16.125 5.94 15.8925 5.8425 15.7463 5.9775C14.79 6.8625 12.1313 7.5 9 7.5Z" />
</svg>
